  0
SECTION
  2
HEADER
  9
$ANGBASE
  50
0.0
  9
$ANGDIR
  70
1
  9
$MEASUREMENT
  70
1
  0
ENDSEC
  0
SECTION
  2
TABLES
  0
TABLE
  2
LTYPE
  70
4
  0
LTYPE
  5
40F
  2
CONTINUOUS
  70
0
  3
Solid line
  72
65
  73
0
  40
0.0
  0
LTYPE
  5
410
  2
DASHDOT
 70
0
  3
Dash Dot ____ _ ____ _
 72
65
 73
4
 40
2.0
 49
1.25
 49
-0.25
 49
0.25
 49
-0.25
  0
LTYPE
  5
411
  2
DASHED
 70
0
  3
Dashed __ __ __ __ __
 72
65
 73
2
 40
0.75
 49
0.5
 49
-0.25
  0
LTYPE
  5
43B
  2
DOTTED
 70
0
  3
Dotted .  .  .  .
 72
65
 73
2
 40
0.2
 49
0.0
 49
-0.2
  0
ENDTAB
  0
TABLE
  2
STYLE
  70
4
  0
STYLE
  2
KICAD
  70
0
  40
0
  41
1
  42
1
  50
0
  71
0
  3
isocp.shx
  0
STYLE
  2
KICADB
  70
0
  40
0
  41
1
  42
1
  50
0
  71
0
  3
isocp.shx
  0
STYLE
  2
KICADI
  70
0
  40
0
  41
1
  42
1
  50
15
  71
0
  3
isocp.shx
  0
STYLE
  2
KICADBI
  70
0
  40
0
  41
1
  42
1
  50
15
  71
0
  3
isocp.shx
  0
ENDTAB
  0
TABLE
  2
LAYER
  70
1
  0
LAYER
  2
BLACK
  70
0
  62
7
  6
CONTINUOUS
  0
ENDTAB
  0
ENDSEC
  0
SECTION
  2
ENTITIES
0
LINE
8
BLACK
6
CONTINUOUS
10
124.606
20
-114.202
11
124.609
21
-114.205
0
LINE
8
BLACK
6
CONTINUOUS
10
124.609
20
-114.205
11
124.614
21
-114.205
0
LINE
8
BLACK
6
CONTINUOUS
10
124.614
20
-114.205
11
124.709
21
-114.253
0
LINE
8
BLACK
6
CONTINUOUS
10
124.709
20
-114.253
11
124.727
21
-114.266
0
LINE
8
BLACK
6
CONTINUOUS
10
124.727
20
-114.266
11
124.729
21
-114.267
0
LINE
8
BLACK
6
CONTINUOUS
10
124.729
20
-114.267
11
124.776
21
-114.315
0
LINE
8
BLACK
6
CONTINUOUS
10
124.776
20
-114.315
11
124.791
21
-114.336
0
LINE
8
BLACK
6
CONTINUOUS
10
124.791
20
-114.336
11
124.796
21
-114.387
0
LINE
8
BLACK
6
CONTINUOUS
10
124.796
20
-114.387
11
124.766
21
-114.429
0
LINE
8
BLACK
6
CONTINUOUS
10
124.766
20
-114.429
11
124.717
21
-114.442
0
LINE
8
BLACK
6
CONTINUOUS
10
124.717
20
-114.442
11
124.67
21
-114.421
0
LINE
8
BLACK
6
CONTINUOUS
10
124.67
20
-114.421
11
124.631
21
-114.382
0
LINE
8
BLACK
6
CONTINUOUS
10
124.631
20
-114.382
11
124.563
21
-114.347
0
LINE
8
BLACK
6
CONTINUOUS
10
124.563
20
-114.347
11
124.36
21
-114.347
0
LINE
8
BLACK
6
CONTINUOUS
10
124.36
20
-114.347
11
124.291
21
-114.382
0
LINE
8
BLACK
6
CONTINUOUS
10
124.291
20
-114.382
11
124.261
21
-114.412
0
LINE
8
BLACK
6
CONTINUOUS
10
124.261
20
-114.412
11
124.227
21
-114.481
0
LINE
8
BLACK
6
CONTINUOUS
10
124.227
20
-114.481
11
124.227
21
-114.546
0
LINE
8
BLACK
6
CONTINUOUS
10
124.227
20
-114.546
11
124.265
21
-114.66
0
LINE
8
BLACK
6
CONTINUOUS
10
124.265
20
-114.66
11
124.824
21
-115.219
0
LINE
8
BLACK
6
CONTINUOUS
10
124.824
20
-115.219
11
124.833
21
-115.233
0
LINE
8
BLACK
6
CONTINUOUS
10
124.833
20
-115.233
11
124.836
21
-115.235
0
LINE
8
BLACK
6
CONTINUOUS
10
124.836
20
-115.235
11
124.836
21
-115.237
0
LINE
8
BLACK
6
CONTINUOUS
10
124.836
20
-115.237
11
124.839
21
-115.241
0
LINE
8
BLACK
6
CONTINUOUS
10
124.839
20
-115.241
11
124.841
21
-115.263
0
LINE
8
BLACK
6
CONTINUOUS
10
124.841
20
-115.263
11
124.845
21
-115.285
0
LINE
8
BLACK
6
CONTINUOUS
10
124.845
20
-115.285
11
124.843
21
-115.288
0
LINE
8
BLACK
6
CONTINUOUS
10
124.843
20
-115.288
11
124.843
21
-115.292
0
LINE
8
BLACK
6
CONTINUOUS
10
124.843
20
-115.292
11
124.83
21
-115.31
0
LINE
8
BLACK
6
CONTINUOUS
10
124.83
20
-115.31
11
124.819
21
-115.33
0
LINE
8
BLACK
6
CONTINUOUS
10
124.819
20
-115.33
11
124.816
21
-115.331
0
LINE
8
BLACK
6
CONTINUOUS
10
124.816
20
-115.331
11
124.814
21
-115.334
0
LINE
8
BLACK
6
CONTINUOUS
10
124.814
20
-115.334
11
124.792
21
-115.34
0
LINE
8
BLACK
6
CONTINUOUS
10
124.792
20
-115.34
11
124.771
21
-115.347
0
LINE
8
BLACK
6
CONTINUOUS
10
124.771
20
-115.347
11
124.152
21
-115.347
0
LINE
8
BLACK
6
CONTINUOUS
10
124.152
20
-115.347
11
124.126
21
-115.343
0
LINE
8
BLACK
6
CONTINUOUS
10
124.126
20
-115.343
11
124.087
21
-115.31
0
LINE
8
BLACK
6
CONTINUOUS
10
124.087
20
-115.31
11
124.078
21
-115.259
0
LINE
8
BLACK
6
CONTINUOUS
10
124.078
20
-115.259
11
124.104
21
-115.215
0
LINE
8
BLACK
6
CONTINUOUS
10
124.104
20
-115.215
11
124.152
21
-115.197
0
LINE
8
BLACK
6
CONTINUOUS
10
124.152
20
-115.197
11
124.59
21
-115.197
0
LINE
8
BLACK
6
CONTINUOUS
10
124.59
20
-115.197
11
124.146
21
-114.754
0
LINE
8
BLACK
6
CONTINUOUS
10
124.146
20
-114.754
11
124.131
21
-114.733
0
LINE
8
BLACK
6
CONTINUOUS
10
124.131
20
-114.733
11
124.131
21
-114.728
0
LINE
8
BLACK
6
CONTINUOUS
10
124.131
20
-114.728
11
124.128
21
-114.725
0
LINE
8
BLACK
6
CONTINUOUS
10
124.128
20
-114.725
11
124.081
21
-114.582
0
LINE
8
BLACK
6
CONTINUOUS
10
124.081
20
-114.582
11
124.077
21
-114.56
0
LINE
8
BLACK
6
CONTINUOUS
10
124.077
20
-114.56
11
124.077
21
-114.558
0
LINE
8
BLACK
6
CONTINUOUS
10
124.077
20
-114.558
11
124.077
21
-114.463
0
LINE
8
BLACK
6
CONTINUOUS
10
124.077
20
-114.463
11
124.081
21
-114.437
0
LINE
8
BLACK
6
CONTINUOUS
10
124.081
20
-114.437
11
124.084
21
-114.434
0
LINE
8
BLACK
6
CONTINUOUS
10
124.084
20
-114.434
11
124.085
21
-114.429
0
LINE
8
BLACK
6
CONTINUOUS
10
124.085
20
-114.429
11
124.132
21
-114.334
0
LINE
8
BLACK
6
CONTINUOUS
10
124.132
20
-114.334
11
124.146
21
-114.316
0
LINE
8
BLACK
6
CONTINUOUS
10
124.146
20
-114.316
11
124.146
21
-114.315
0
LINE
8
BLACK
6
CONTINUOUS
10
124.146
20
-114.315
11
124.194
21
-114.267
0
LINE
8
BLACK
6
CONTINUOUS
10
124.194
20
-114.267
11
124.212
21
-114.254
0
LINE
8
BLACK
6
CONTINUOUS
10
124.212
20
-114.254
11
124.213
21
-114.253
0
LINE
8
BLACK
6
CONTINUOUS
10
124.213
20
-114.253
11
124.309
21
-114.205
0
LINE
8
BLACK
6
CONTINUOUS
10
124.309
20
-114.205
11
124.334
21
-114.198
0
LINE
8
BLACK
6
CONTINUOUS
10
124.334
20
-114.198
11
124.338
21
-114.199
0
LINE
8
BLACK
6
CONTINUOUS
10
124.338
20
-114.199
11
124.342
21
-114.197
0
LINE
8
BLACK
6
CONTINUOUS
10
124.342
20
-114.197
11
124.58
21
-114.197
0
LINE
8
BLACK
6
CONTINUOUS
10
124.58
20
-114.197
11
124.606
21
-114.202
0
LINE
8
BLACK
6
CONTINUOUS
10
125.685
20
-114.199
11
125.689
21
-114.199
0
LINE
8
BLACK
6
CONTINUOUS
10
125.689
20
-114.199
11
125.692
21
-114.2
0
LINE
8
BLACK
6
CONTINUOUS
10
125.692
20
-114.2
11
125.701
21
-114.202
0
LINE
8
BLACK
6
CONTINUOUS
10
125.701
20
-114.202
11
125.716
21
-114.214
0
LINE
8
BLACK
6
CONTINUOUS
10
125.716
20
-114.214
11
125.733
21
-114.224
0
LINE
8
BLACK
6
CONTINUOUS
10
125.733
20
-114.224
11
125.735
21
-114.231
0
LINE
8
BLACK
6
CONTINUOUS
10
125.735
20
-114.231
11
125.741
21
-114.235
0
LINE
8
BLACK
6
CONTINUOUS
10
125.741
20
-114.235
11
125.744
21
-114.254
0
LINE
8
BLACK
6
CONTINUOUS
10
125.744
20
-114.254
11
125.751
21
-114.272
0
LINE
8
BLACK
6
CONTINUOUS
10
125.751
20
-114.272
11
125.751
21
-115.272
0
LINE
8
BLACK
6
CONTINUOUS
10
125.751
20
-115.272
11
125.746
21
-115.298
0
LINE
8
BLACK
6
CONTINUOUS
10
125.746
20
-115.298
11
125.713
21
-115.337
0
LINE
8
BLACK
6
CONTINUOUS
10
125.713
20
-115.337
11
125.663
21
-115.346
0
LINE
8
BLACK
6
CONTINUOUS
10
125.663
20
-115.346
11
125.618
21
-115.321
0
LINE
8
BLACK
6
CONTINUOUS
10
125.618
20
-115.321
11
125.601
21
-115.272
0
LINE
8
BLACK
6
CONTINUOUS
10
125.601
20
-115.272
11
125.601
21
-114.871
0
LINE
8
BLACK
6
CONTINUOUS
10
125.601
20
-114.871
11
125.477
21
-114.871
0
LINE
8
BLACK
6
CONTINUOUS
10
125.477
20
-114.871
11
125.166
21
-115.315
0
LINE
8
BLACK
6
CONTINUOUS
10
125.166
20
-115.315
11
125.147
21
-115.334
0
LINE
8
BLACK
6
CONTINUOUS
10
125.147
20
-115.334
11
125.098
21
-115.347
0
LINE
8
BLACK
6
CONTINUOUS
10
125.098
20
-115.347
11
125.051
21
-115.325
0
LINE
8
BLACK
6
CONTINUOUS
10
125.051
20
-115.325
11
125.029
21
-115.279
0
LINE
8
BLACK
6
CONTINUOUS
10
125.029
20
-115.279
11
125.043
21
-115.229
0
LINE
8
BLACK
6
CONTINUOUS
10
125.043
20
-115.229
11
125.294
21
-114.871
0
LINE
8
BLACK
6
CONTINUOUS
10
125.294
20
-114.871
11
125.269
21
-114.867
0
LINE
8
BLACK
6
CONTINUOUS
10
125.269
20
-114.867
11
125.266
21
-114.864
0
LINE
8
BLACK
6
CONTINUOUS
10
125.266
20
-114.864
11
125.261
21
-114.863
0
LINE
8
BLACK
6
CONTINUOUS
10
125.261
20
-114.863
11
125.166
21
-114.816
0
LINE
8
BLACK
6
CONTINUOUS
10
125.166
20
-114.816
11
125.148
21
-114.802
0
LINE
8
BLACK
6
CONTINUOUS
10
125.148
20
-114.802
11
125.146
21
-114.802
0
LINE
8
BLACK
6
CONTINUOUS
10
125.146
20
-114.802
11
125.099
21
-114.754
0
LINE
8
BLACK
6
CONTINUOUS
10
125.099
20
-114.754
11
125.086
21
-114.736
0
LINE
8
BLACK
6
CONTINUOUS
10
125.086
20
-114.736
11
125.085
21
-114.734
0
LINE
8
BLACK
6
CONTINUOUS
10
125.085
20
-114.734
11
125.037
21
-114.639
0
LINE
8
BLACK
6
CONTINUOUS
10
125.037
20
-114.639
11
125.03
21
-114.614
0
LINE
8
BLACK
6
CONTINUOUS
10
125.03
20
-114.614
11
125.031
21
-114.61
0
LINE
8
BLACK
6
CONTINUOUS
10
125.031
20
-114.61
11
125.029
21
-114.606
0
LINE
8
BLACK
6
CONTINUOUS
10
125.029
20
-114.606
11
125.029
21
-114.463
0
LINE
8
BLACK
6
CONTINUOUS
10
125.029
20
-114.463
11
125.034
21
-114.437
0
LINE
8
BLACK
6
CONTINUOUS
10
125.034
20
-114.437
11
125.037
21
-114.434
0
LINE
8
BLACK
6
CONTINUOUS
10
125.037
20
-114.434
11
125.037
21
-114.429
0
LINE
8
BLACK
6
CONTINUOUS
10
125.037
20
-114.429
11
125.085
21
-114.334
0
LINE
8
BLACK
6
CONTINUOUS
10
125.085
20
-114.334
11
125.098
21
-114.316
0
LINE
8
BLACK
6
CONTINUOUS
10
125.098
20
-114.316
11
125.099
21
-114.315
0
LINE
8
BLACK
6
CONTINUOUS
10
125.099
20
-114.315
11
125.146
21
-114.267
0
LINE
8
BLACK
6
CONTINUOUS
10
125.146
20
-114.267
11
125.165
21
-114.254
0
LINE
8
BLACK
6
CONTINUOUS
10
125.165
20
-114.254
11
125.166
21
-114.253
0
LINE
8
BLACK
6
CONTINUOUS
10
125.166
20
-114.253
11
125.261
21
-114.205
0
LINE
8
BLACK
6
CONTINUOUS
10
125.261
20
-114.205
11
125.286
21
-114.198
0
LINE
8
BLACK
6
CONTINUOUS
10
125.286
20
-114.198
11
125.29
21
-114.199
0
LINE
8
BLACK
6
CONTINUOUS
10
125.29
20
-114.199
11
125.295
21
-114.197
0
LINE
8
BLACK
6
CONTINUOUS
10
125.295
20
-114.197
11
125.676
21
-114.197
0
LINE
8
BLACK
6
CONTINUOUS
10
125.676
20
-114.197
11
125.685
21
-114.199
0
LINE
8
BLACK
6
CONTINUOUS
10
125.312
20
-114.347
11
125.244
21
-114.382
0
LINE
8
BLACK
6
CONTINUOUS
10
125.244
20
-114.382
11
125.213
21
-114.412
0
LINE
8
BLACK
6
CONTINUOUS
10
125.213
20
-114.412
11
125.179
21
-114.481
0
LINE
8
BLACK
6
CONTINUOUS
10
125.179
20
-114.481
11
125.179
21
-114.588
0
LINE
8
BLACK
6
CONTINUOUS
10
125.179
20
-114.588
11
125.213
21
-114.657
0
LINE
8
BLACK
6
CONTINUOUS
10
125.213
20
-114.657
11
125.244
21
-114.687
0
LINE
8
BLACK
6
CONTINUOUS
10
125.244
20
-114.687
11
125.312
21
-114.721
0
LINE
8
BLACK
6
CONTINUOUS
10
125.312
20
-114.721
11
125.601
21
-114.721
0
LINE
8
BLACK
6
CONTINUOUS
10
125.601
20
-114.721
11
125.601
21
-114.347
0
LINE
8
BLACK
6
CONTINUOUS
10
125.601
20
-114.347
11
125.312
21
-114.347
0
LINE
8
BLACK
6
CONTINUOUS
10
137.452
20
-108.048
11
137.47
21
-108.09
0
LINE
8
BLACK
6
CONTINUOUS
10
137.47
20
-108.09
11
137.47
21
-114.1
0
LINE
8
BLACK
6
CONTINUOUS
10
137.47
20
-114.1
11
137.452
21
-114.142
0
LINE
8
BLACK
6
CONTINUOUS
10
137.452
20
-114.142
11
137.41
21
-114.16
0
LINE
8
BLACK
6
CONTINUOUS
10
137.41
20
-114.16
11
137.368
21
-114.142
0
LINE
8
BLACK
6
CONTINUOUS
10
137.368
20
-114.142
11
137.35
21
-114.1
0
LINE
8
BLACK
6
CONTINUOUS
10
137.35
20
-114.1
11
137.35
21
-108.15
0
LINE
8
BLACK
6
CONTINUOUS
10
137.35
20
-108.15
11
136.15
21
-108.15
0
LINE
8
BLACK
6
CONTINUOUS
10
136.15
20
-108.15
11
136.108
21
-108.132
0
LINE
8
BLACK
6
CONTINUOUS
10
136.108
20
-108.132
11
136.09
21
-108.09
0
LINE
8
BLACK
6
CONTINUOUS
10
136.09
20
-108.09
11
136.108
21
-108.048
0
LINE
8
BLACK
6
CONTINUOUS
10
136.108
20
-108.048
11
136.15
21
-108.03
0
LINE
8
BLACK
6
CONTINUOUS
10
136.15
20
-108.03
11
137.41
21
-108.03
0
LINE
8
BLACK
6
CONTINUOUS
10
137.41
20
-108.03
11
137.452
21
-108.048
0
LINE
8
BLACK
6
CONTINUOUS
10
125.707
20
-113.868
11
125.725
21
-113.91
0
LINE
8
BLACK
6
CONTINUOUS
10
125.725
20
-113.91
11
125.707
21
-113.952
0
LINE
8
BLACK
6
CONTINUOUS
10
125.707
20
-113.952
11
125.665
21
-113.97
0
LINE
8
BLACK
6
CONTINUOUS
10
125.665
20
-113.97
11
124.21
21
-113.97
0
LINE
8
BLACK
6
CONTINUOUS
10
124.21
20
-113.97
11
124.168
21
-113.952
0
LINE
8
BLACK
6
CONTINUOUS
10
124.168
20
-113.952
11
124.15
21
-113.91
0
LINE
8
BLACK
6
CONTINUOUS
10
124.15
20
-113.91
11
124.168
21
-113.868
0
LINE
8
BLACK
6
CONTINUOUS
10
124.168
20
-113.868
11
124.21
21
-113.85
0
LINE
8
BLACK
6
CONTINUOUS
10
124.21
20
-113.85
11
125.665
21
-113.85
0
LINE
8
BLACK
6
CONTINUOUS
10
125.665
20
-113.85
11
125.707
21
-113.868
0
LINE
8
BLACK
6
CONTINUOUS
10
125.707
20
-112.048
11
125.725
21
-112.09
0
LINE
8
BLACK
6
CONTINUOUS
10
125.725
20
-112.09
11
125.707
21
-112.132
0
LINE
8
BLACK
6
CONTINUOUS
10
125.707
20
-112.132
11
125.665
21
-112.15
0
LINE
8
BLACK
6
CONTINUOUS
10
125.665
20
-112.15
11
124.21
21
-112.15
0
LINE
8
BLACK
6
CONTINUOUS
10
124.21
20
-112.15
11
124.168
21
-112.132
0
LINE
8
BLACK
6
CONTINUOUS
10
124.168
20
-112.132
11
124.15
21
-112.09
0
LINE
8
BLACK
6
CONTINUOUS
10
124.15
20
-112.09
11
124.168
21
-112.048
0
LINE
8
BLACK
6
CONTINUOUS
10
124.168
20
-112.048
11
124.21
21
-112.03
0
LINE
8
BLACK
6
CONTINUOUS
10
124.21
20
-112.03
11
125.665
21
-112.03
0
LINE
8
BLACK
6
CONTINUOUS
10
125.665
20
-112.03
11
125.707
21
-112.048
0
LINE
8
BLACK
6
CONTINUOUS
10
131.892
20
-108.048
11
131.91
21
-108.09
0
LINE
8
BLACK
6
CONTINUOUS
10
131.91
20
-108.09
11
131.892
21
-108.132
0
LINE
8
BLACK
6
CONTINUOUS
10
131.892
20
-108.132
11
131.85
21
-108.15
0
LINE
8
BLACK
6
CONTINUOUS
10
131.85
20
-108.15
11
130.65
21
-108.15
0
LINE
8
BLACK
6
CONTINUOUS
10
130.65
20
-108.15
11
130.65
21
-111.85
0
LINE
8
BLACK
6
CONTINUOUS
10
130.65
20
-111.85
11
130.632
21
-111.892
0
LINE
8
BLACK
6
CONTINUOUS
10
130.632
20
-111.892
11
130.59
21
-111.91
0
LINE
8
BLACK
6
CONTINUOUS
10
130.59
20
-111.91
11
130.548
21
-111.892
0
LINE
8
BLACK
6
CONTINUOUS
10
130.548
20
-111.892
11
130.53
21
-111.85
0
LINE
8
BLACK
6
CONTINUOUS
10
130.53
20
-111.85
11
130.53
21
-108.09
0
LINE
8
BLACK
6
CONTINUOUS
10
130.53
20
-108.09
11
130.548
21
-108.048
0
LINE
8
BLACK
6
CONTINUOUS
10
130.548
20
-108.048
11
130.59
21
-108.03
0
LINE
8
BLACK
6
CONTINUOUS
10
130.59
20
-108.03
11
131.85
21
-108.03
0
LINE
8
BLACK
6
CONTINUOUS
10
131.85
20
-108.03
11
131.892
21
-108.048
0
LINE
8
BLACK
6
CONTINUOUS
10
124.517
20
-110.201
11
124.521
21
-110.2
0
LINE
8
BLACK
6
CONTINUOUS
10
124.521
20
-110.2
11
124.539
21
-110.213
0
LINE
8
BLACK
6
CONTINUOUS
10
124.539
20
-110.213
11
124.557
21
-110.224
0
LINE
8
BLACK
6
CONTINUOUS
10
124.557
20
-110.224
11
124.559
21
-110.228
0
LINE
8
BLACK
6
CONTINUOUS
10
124.559
20
-110.228
11
124.562
21
-110.231
0
LINE
8
BLACK
6
CONTINUOUS
10
124.562
20
-110.231
11
124.654
21
-110.367
0
LINE
8
BLACK
6
CONTINUOUS
10
124.654
20
-110.367
11
124.735
21
-110.449
0
LINE
8
BLACK
6
CONTINUOUS
10
124.735
20
-110.449
11
124.819
21
-110.491
0
LINE
8
BLACK
6
CONTINUOUS
10
124.819
20
-110.491
11
124.84
21
-110.507
0
LINE
8
BLACK
6
CONTINUOUS
10
124.84
20
-110.507
11
124.861
21
-110.554
0
LINE
8
BLACK
6
CONTINUOUS
10
124.861
20
-110.554
11
124.846
21
-110.603
0
LINE
8
BLACK
6
CONTINUOUS
10
124.846
20
-110.603
11
124.803
21
-110.631
0
LINE
8
BLACK
6
CONTINUOUS
10
124.803
20
-110.631
11
124.752
21
-110.625
0
LINE
8
BLACK
6
CONTINUOUS
10
124.752
20
-110.625
11
124.657
21
-110.578
0
LINE
8
BLACK
6
CONTINUOUS
10
124.657
20
-110.578
11
124.639
21
-110.564
0
LINE
8
BLACK
6
CONTINUOUS
10
124.639
20
-110.564
11
124.637
21
-110.564
0
LINE
8
BLACK
6
CONTINUOUS
10
124.637
20
-110.564
11
124.575
21
-110.501
0
LINE
8
BLACK
6
CONTINUOUS
10
124.575
20
-110.501
11
124.575
21
-111.197
0
LINE
8
BLACK
6
CONTINUOUS
10
124.575
20
-111.197
11
124.786
21
-111.197
0
LINE
8
BLACK
6
CONTINUOUS
10
124.786
20
-111.197
11
124.811
21
-111.202
0
LINE
8
BLACK
6
CONTINUOUS
10
124.811
20
-111.202
11
124.851
21
-111.235
0
LINE
8
BLACK
6
CONTINUOUS
10
124.851
20
-111.235
11
124.86
21
-111.285
0
LINE
8
BLACK
6
CONTINUOUS
10
124.86
20
-111.285
11
124.834
21
-111.33
0
LINE
8
BLACK
6
CONTINUOUS
10
124.834
20
-111.33
11
124.786
21
-111.347
0
LINE
8
BLACK
6
CONTINUOUS
10
124.786
20
-111.347
11
124.214
21
-111.347
0
LINE
8
BLACK
6
CONTINUOUS
10
124.214
20
-111.347
11
124.189
21
-111.343
0
LINE
8
BLACK
6
CONTINUOUS
10
124.189
20
-111.343
11
124.149
21
-111.31
0
LINE
8
BLACK
6
CONTINUOUS
10
124.149
20
-111.31
11
124.14
21
-111.259
0
LINE
8
BLACK
6
CONTINUOUS
10
124.14
20
-111.259
11
124.166
21
-111.215
0
LINE
8
BLACK
6
CONTINUOUS
10
124.166
20
-111.215
11
124.214
21
-111.197
0
LINE
8
BLACK
6
CONTINUOUS
10
124.214
20
-111.197
11
124.425
21
-111.197
0
LINE
8
BLACK
6
CONTINUOUS
10
124.425
20
-111.197
11
124.425
21
-110.272
0
LINE
8
BLACK
6
CONTINUOUS
10
124.425
20
-110.272
11
124.43
21
-110.247
0
LINE
8
BLACK
6
CONTINUOUS
10
124.43
20
-110.247
11
124.432
21
-110.243
0
LINE
8
BLACK
6
CONTINUOUS
10
124.432
20
-110.243
11
124.433
21
-110.239
0
LINE
8
BLACK
6
CONTINUOUS
10
124.433
20
-110.239
11
124.449
21
-110.224
0
LINE
8
BLACK
6
CONTINUOUS
10
124.449
20
-110.224
11
124.462
21
-110.207
0
LINE
8
BLACK
6
CONTINUOUS
10
124.462
20
-110.207
11
124.467
21
-110.207
0
LINE
8
BLACK
6
CONTINUOUS
10
124.467
20
-110.207
11
124.47
21
-110.204
0
LINE
8
BLACK
6
CONTINUOUS
10
124.47
20
-110.204
11
124.492
21
-110.202
0
LINE
8
BLACK
6
CONTINUOUS
10
124.492
20
-110.202
11
124.513
21
-110.199
0
LINE
8
BLACK
6
CONTINUOUS
10
124.513
20
-110.199
11
124.517
21
-110.201
0
LINE
8
BLACK
6
CONTINUOUS
10
125.748
20
-110.199
11
125.751
21
-110.199
0
LINE
8
BLACK
6
CONTINUOUS
10
125.751
20
-110.199
11
125.754
21
-110.2
0
LINE
8
BLACK
6
CONTINUOUS
10
125.754
20
-110.2
11
125.764
21
-110.202
0
LINE
8
BLACK
6
CONTINUOUS
10
125.764
20
-110.202
11
125.779
21
-110.214
0
LINE
8
BLACK
6
CONTINUOUS
10
125.779
20
-110.214
11
125.796
21
-110.224
0
LINE
8
BLACK
6
CONTINUOUS
10
125.796
20
-110.224
11
125.798
21
-110.231
0
LINE
8
BLACK
6
CONTINUOUS
10
125.798
20
-110.231
11
125.803
21
-110.235
0
LINE
8
BLACK
6
CONTINUOUS
10
125.803
20
-110.235
11
125.806
21
-110.254
0
LINE
8
BLACK
6
CONTINUOUS
10
125.806
20
-110.254
11
125.813
21
-110.272
0
LINE
8
BLACK
6
CONTINUOUS
10
125.813
20
-110.272
11
125.813
21
-111.272
0
LINE
8
BLACK
6
CONTINUOUS
10
125.813
20
-111.272
11
125.811
21
-111.282
0
LINE
8
BLACK
6
CONTINUOUS
10
125.811
20
-111.282
11
125.812
21
-111.285
0
LINE
8
BLACK
6
CONTINUOUS
10
125.812
20
-111.285
11
125.81
21
-111.288
0
LINE
8
BLACK
6
CONTINUOUS
10
125.81
20
-111.288
11
125.809
21
-111.298
0
LINE
8
BLACK
6
CONTINUOUS
10
125.809
20
-111.298
11
125.796
21
-111.313
0
LINE
8
BLACK
6
CONTINUOUS
10
125.796
20
-111.313
11
125.786
21
-111.33
0
LINE
8
BLACK
6
CONTINUOUS
10
125.786
20
-111.33
11
125.78
21
-111.332
0
LINE
8
BLACK
6
CONTINUOUS
10
125.78
20
-111.332
11
125.776
21
-111.337
0
LINE
8
BLACK
6
CONTINUOUS
10
125.776
20
-111.337
11
125.756
21
-111.341
0
LINE
8
BLACK
6
CONTINUOUS
10
125.756
20
-111.341
11
125.738
21
-111.347
0
LINE
8
BLACK
6
CONTINUOUS
10
125.738
20
-111.347
11
125.5
21
-111.347
0
LINE
8
BLACK
6
CONTINUOUS
10
125.5
20
-111.347
11
125.478
21
-111.343
0
LINE
8
BLACK
6
CONTINUOUS
10
125.478
20
-111.343
11
125.476
21
-111.344
0
LINE
8
BLACK
6
CONTINUOUS
10
125.476
20
-111.344
11
125.333
21
-111.296
0
LINE
8
BLACK
6
CONTINUOUS
10
125.333
20
-111.296
11
125.311
21
-111.284
0
LINE
8
BLACK
6
CONTINUOUS
10
125.311
20
-111.284
11
125.308
21
-111.28
0
LINE
8
BLACK
6
CONTINUOUS
10
125.308
20
-111.28
11
125.304
21
-111.278
0
LINE
8
BLACK
6
CONTINUOUS
10
125.304
20
-111.278
11
125.209
21
-111.183
0
LINE
8
BLACK
6
CONTINUOUS
10
125.209
20
-111.183
11
125.196
21
-111.164
0
LINE
8
BLACK
6
CONTINUOUS
10
125.196
20
-111.164
11
125.195
21
-111.163
0
LINE
8
BLACK
6
CONTINUOUS
10
125.195
20
-111.163
11
125.147
21
-111.068
0
LINE
8
BLACK
6
CONTINUOUS
10
125.147
20
-111.068
11
125.144
21
-111.055
0
LINE
8
BLACK
6
CONTINUOUS
10
125.144
20
-111.055
11
125.142
21
-111.052
0
LINE
8
BLACK
6
CONTINUOUS
10
125.142
20
-111.052
11
125.094
21
-110.862
0
LINE
8
BLACK
6
CONTINUOUS
10
125.094
20
-110.862
11
125.093
21
-110.847
0
LINE
8
BLACK
6
CONTINUOUS
10
125.093
20
-110.847
11
125.092
21
-110.844
0
LINE
8
BLACK
6
CONTINUOUS
10
125.092
20
-110.844
11
125.092
21
-110.701
0
LINE
8
BLACK
6
CONTINUOUS
10
125.092
20
-110.701
11
125.094
21
-110.686
0
LINE
8
BLACK
6
CONTINUOUS
10
125.094
20
-110.686
11
125.094
21
-110.683
0
LINE
8
BLACK
6
CONTINUOUS
10
125.094
20
-110.683
11
125.142
21
-110.492
0
LINE
8
BLACK
6
CONTINUOUS
10
125.142
20
-110.492
11
125.147
21
-110.48
0
LINE
8
BLACK
6
CONTINUOUS
10
125.147
20
-110.48
11
125.147
21
-110.477
0
LINE
8
BLACK
6
CONTINUOUS
10
125.147
20
-110.477
11
125.195
21
-110.382
0
LINE
8
BLACK
6
CONTINUOUS
10
125.195
20
-110.382
11
125.208
21
-110.364
0
LINE
8
BLACK
6
CONTINUOUS
10
125.208
20
-110.364
11
125.209
21
-110.362
0
LINE
8
BLACK
6
CONTINUOUS
10
125.209
20
-110.362
11
125.304
21
-110.267
0
LINE
8
BLACK
6
CONTINUOUS
10
125.304
20
-110.267
11
125.325
21
-110.252
0
LINE
8
BLACK
6
CONTINUOUS
10
125.325
20
-110.252
11
125.33
21
-110.252
0
LINE
8
BLACK
6
CONTINUOUS
10
125.33
20
-110.252
11
125.333
21
-110.249
0
LINE
8
BLACK
6
CONTINUOUS
10
125.333
20
-110.249
11
125.476
21
-110.201
0
LINE
8
BLACK
6
CONTINUOUS
10
125.476
20
-110.201
11
125.498
21
-110.198
0
LINE
8
BLACK
6
CONTINUOUS
10
125.498
20
-110.198
11
125.5
21
-110.197
0
LINE
8
BLACK
6
CONTINUOUS
10
125.5
20
-110.197
11
125.738
21
-110.197
0
LINE
8
BLACK
6
CONTINUOUS
10
125.738
20
-110.197
11
125.748
21
-110.199
0
LINE
8
BLACK
6
CONTINUOUS
10
125.512
20
-110.347
11
125.398
21
-110.386
0
LINE
8
BLACK
6
CONTINUOUS
10
125.398
20
-110.386
11
125.324
21
-110.46
0
LINE
8
BLACK
6
CONTINUOUS
10
125.324
20
-110.46
11
125.285
21
-110.537
0
LINE
8
BLACK
6
CONTINUOUS
10
125.285
20
-110.537
11
125.242
21
-110.71
0
LINE
8
BLACK
6
CONTINUOUS
10
125.242
20
-110.71
11
125.242
21
-110.835
0
LINE
8
BLACK
6
CONTINUOUS
10
125.242
20
-110.835
11
125.285
21
-111.008
0
LINE
8
BLACK
6
CONTINUOUS
10
125.285
20
-111.008
11
125.324
21
-111.085
0
LINE
8
BLACK
6
CONTINUOUS
10
125.324
20
-111.085
11
125.398
21
-111.159
0
LINE
8
BLACK
6
CONTINUOUS
10
125.398
20
-111.159
11
125.512
21
-111.197
0
LINE
8
BLACK
6
CONTINUOUS
10
125.512
20
-111.197
11
125.663
21
-111.197
0
LINE
8
BLACK
6
CONTINUOUS
10
125.663
20
-111.197
11
125.663
21
-110.347
0
LINE
8
BLACK
6
CONTINUOUS
10
125.663
20
-110.347
11
125.512
21
-110.347
0
LINE
8
BLACK
6
CONTINUOUS
10
138.283
20
-110.178
11
138.311
21
-110.221
0
LINE
8
BLACK
6
CONTINUOUS
10
138.311
20
-110.221
11
138.305
21
-110.272
0
LINE
8
BLACK
6
CONTINUOUS
10
138.305
20
-110.272
11
138.258
21
-110.367
0
LINE
8
BLACK
6
CONTINUOUS
10
138.258
20
-110.367
11
138.244
21
-110.385
0
LINE
8
BLACK
6
CONTINUOUS
10
138.244
20
-110.385
11
138.244
21
-110.386
0
LINE
8
BLACK
6
CONTINUOUS
10
138.244
20
-110.386
11
138.181
21
-110.449
0
LINE
8
BLACK
6
CONTINUOUS
10
138.181
20
-110.449
11
138.877
21
-110.449
0
LINE
8
BLACK
6
CONTINUOUS
10
138.877
20
-110.449
11
138.877
21
-110.238
0
LINE
8
BLACK
6
CONTINUOUS
10
138.877
20
-110.238
11
138.882
21
-110.212
0
LINE
8
BLACK
6
CONTINUOUS
10
138.882
20
-110.212
11
138.915
21
-110.173
0
LINE
8
BLACK
6
CONTINUOUS
10
138.915
20
-110.173
11
138.965
21
-110.164
0
LINE
8
BLACK
6
CONTINUOUS
10
138.965
20
-110.164
11
139.01
21
-110.19
0
LINE
8
BLACK
6
CONTINUOUS
10
139.01
20
-110.19
11
139.027
21
-110.238
0
LINE
8
BLACK
6
CONTINUOUS
10
139.027
20
-110.238
11
139.027
21
-110.81
0
LINE
8
BLACK
6
CONTINUOUS
10
139.027
20
-110.81
11
139.023
21
-110.835
0
LINE
8
BLACK
6
CONTINUOUS
10
139.023
20
-110.835
11
138.99
21
-110.874
0
LINE
8
BLACK
6
CONTINUOUS
10
138.99
20
-110.874
11
138.939
21
-110.883
0
LINE
8
BLACK
6
CONTINUOUS
10
138.939
20
-110.883
11
138.895
21
-110.858
0
LINE
8
BLACK
6
CONTINUOUS
10
138.895
20
-110.858
11
138.877
21
-110.81
0
LINE
8
BLACK
6
CONTINUOUS
10
138.877
20
-110.81
11
138.877
21
-110.599
0
LINE
8
BLACK
6
CONTINUOUS
10
138.877
20
-110.599
11
137.952
21
-110.599
0
LINE
8
BLACK
6
CONTINUOUS
10
137.952
20
-110.599
11
137.927
21
-110.594
0
LINE
8
BLACK
6
CONTINUOUS
10
137.927
20
-110.594
11
137.923
21
-110.592
0
LINE
8
BLACK
6
CONTINUOUS
10
137.923
20
-110.592
11
137.919
21
-110.591
0
LINE
8
BLACK
6
CONTINUOUS
10
137.919
20
-110.591
11
137.904
21
-110.575
0
LINE
8
BLACK
6
CONTINUOUS
10
137.904
20
-110.575
11
137.887
21
-110.561
0
LINE
8
BLACK
6
CONTINUOUS
10
137.887
20
-110.561
11
137.887
21
-110.557
0
LINE
8
BLACK
6
CONTINUOUS
10
137.887
20
-110.557
11
137.884
21
-110.554
0
LINE
8
BLACK
6
CONTINUOUS
10
137.884
20
-110.554
11
137.882
21
-110.532
0
LINE
8
BLACK
6
CONTINUOUS
10
137.882
20
-110.532
11
137.879
21
-110.511
0
LINE
8
BLACK
6
CONTINUOUS
10
137.879
20
-110.511
11
137.881
21
-110.507
0
LINE
8
BLACK
6
CONTINUOUS
10
137.881
20
-110.507
11
137.88
21
-110.503
0
LINE
8
BLACK
6
CONTINUOUS
10
137.88
20
-110.503
11
137.893
21
-110.485
0
LINE
8
BLACK
6
CONTINUOUS
10
137.893
20
-110.485
11
137.904
21
-110.466
0
LINE
8
BLACK
6
CONTINUOUS
10
137.904
20
-110.466
11
137.908
21
-110.465
0
LINE
8
BLACK
6
CONTINUOUS
10
137.908
20
-110.465
11
137.911
21
-110.461
0
LINE
8
BLACK
6
CONTINUOUS
10
137.911
20
-110.461
11
138.047
21
-110.37
0
LINE
8
BLACK
6
CONTINUOUS
10
138.047
20
-110.37
11
138.129
21
-110.289
0
LINE
8
BLACK
6
CONTINUOUS
10
138.129
20
-110.289
11
138.171
21
-110.205
0
LINE
8
BLACK
6
CONTINUOUS
10
138.171
20
-110.205
11
138.187
21
-110.184
0
LINE
8
BLACK
6
CONTINUOUS
10
138.187
20
-110.184
11
138.234
21
-110.163
0
LINE
8
BLACK
6
CONTINUOUS
10
138.234
20
-110.163
11
138.283
21
-110.178
0
LINE
8
BLACK
6
CONTINUOUS
10
126.642
20
-107.823
11
126.66
21
-107.865
0
LINE
8
BLACK
6
CONTINUOUS
10
126.66
20
-107.865
11
126.642
21
-107.907
0
LINE
8
BLACK
6
CONTINUOUS
10
126.642
20
-107.907
11
126.6
21
-107.925
0
LINE
8
BLACK
6
CONTINUOUS
10
126.6
20
-107.925
11
122.6
21
-107.925
0
LINE
8
BLACK
6
CONTINUOUS
10
122.6
20
-107.925
11
122.6
21
-110.075
0
LINE
8
BLACK
6
CONTINUOUS
10
122.6
20
-110.075
11
126.6
21
-110.075
0
LINE
8
BLACK
6
CONTINUOUS
10
126.6
20
-110.075
11
126.642
21
-110.093
0
LINE
8
BLACK
6
CONTINUOUS
10
126.642
20
-110.093
11
126.66
21
-110.135
0
LINE
8
BLACK
6
CONTINUOUS
10
126.66
20
-110.135
11
126.642
21
-110.177
0
LINE
8
BLACK
6
CONTINUOUS
10
126.642
20
-110.177
11
126.6
21
-110.195
0
LINE
8
BLACK
6
CONTINUOUS
10
126.6
20
-110.195
11
122.54
21
-110.195
0
LINE
8
BLACK
6
CONTINUOUS
10
122.54
20
-110.195
11
122.498
21
-110.177
0
LINE
8
BLACK
6
CONTINUOUS
10
122.498
20
-110.177
11
122.48
21
-110.135
0
LINE
8
BLACK
6
CONTINUOUS
10
122.48
20
-110.135
11
122.48
21
-107.865
0
LINE
8
BLACK
6
CONTINUOUS
10
122.48
20
-107.865
11
122.498
21
-107.823
0
LINE
8
BLACK
6
CONTINUOUS
10
122.498
20
-107.823
11
122.54
21
-107.805
0
LINE
8
BLACK
6
CONTINUOUS
10
122.54
20
-107.805
11
126.6
21
-107.805
0
LINE
8
BLACK
6
CONTINUOUS
10
126.6
20
-107.805
11
126.642
21
-107.823
0
LINE
8
BLACK
6
CONTINUOUS
10
138.788
20
-109.168
11
138.791
21
-109.17
0
LINE
8
BLACK
6
CONTINUOUS
10
138.791
20
-109.17
11
138.795
21
-109.171
0
LINE
8
BLACK
6
CONTINUOUS
10
138.795
20
-109.171
11
138.891
21
-109.219
0
LINE
8
BLACK
6
CONTINUOUS
10
138.891
20
-109.219
11
138.909
21
-109.232
0
LINE
8
BLACK
6
CONTINUOUS
10
138.909
20
-109.232
11
138.91
21
-109.233
0
LINE
8
BLACK
6
CONTINUOUS
10
138.91
20
-109.233
11
138.958
21
-109.28
0
LINE
8
BLACK
6
CONTINUOUS
10
138.958
20
-109.28
11
138.971
21
-109.299
0
LINE
8
BLACK
6
CONTINUOUS
10
138.971
20
-109.299
11
138.972
21
-109.3
0
LINE
8
BLACK
6
CONTINUOUS
10
138.972
20
-109.3
11
139.019
21
-109.395
0
LINE
8
BLACK
6
CONTINUOUS
10
139.019
20
-109.395
11
139.027
21
-109.42
0
LINE
8
BLACK
6
CONTINUOUS
10
139.027
20
-109.42
11
139.026
21
-109.424
0
LINE
8
BLACK
6
CONTINUOUS
10
139.026
20
-109.424
11
139.027
21
-109.429
0
LINE
8
BLACK
6
CONTINUOUS
10
139.027
20
-109.429
11
139.027
21
-109.619
0
LINE
8
BLACK
6
CONTINUOUS
10
139.027
20
-109.619
11
139.023
21
-109.645
0
LINE
8
BLACK
6
CONTINUOUS
10
139.023
20
-109.645
11
139.02
21
-109.648
0
LINE
8
BLACK
6
CONTINUOUS
10
139.02
20
-109.648
11
139.019
21
-109.653
0
LINE
8
BLACK
6
CONTINUOUS
10
139.019
20
-109.653
11
138.972
21
-109.748
0
LINE
8
BLACK
6
CONTINUOUS
10
138.972
20
-109.748
11
138.958
21
-109.766
0
LINE
8
BLACK
6
CONTINUOUS
10
138.958
20
-109.766
11
138.958
21
-109.767
0
LINE
8
BLACK
6
CONTINUOUS
10
138.958
20
-109.767
11
138.91
21
-109.815
0
LINE
8
BLACK
6
CONTINUOUS
10
138.91
20
-109.815
11
138.892
21
-109.828
0
LINE
8
BLACK
6
CONTINUOUS
10
138.892
20
-109.828
11
138.891
21
-109.829
0
LINE
8
BLACK
6
CONTINUOUS
10
138.891
20
-109.829
11
138.795
21
-109.877
0
LINE
8
BLACK
6
CONTINUOUS
10
138.795
20
-109.877
11
138.77
21
-109.884
0
LINE
8
BLACK
6
CONTINUOUS
10
138.77
20
-109.884
11
138.766
21
-109.883
0
LINE
8
BLACK
6
CONTINUOUS
10
138.766
20
-109.883
11
138.762
21
-109.885
0
LINE
8
BLACK
6
CONTINUOUS
10
138.762
20
-109.885
11
137.952
21
-109.885
0
LINE
8
BLACK
6
CONTINUOUS
10
137.952
20
-109.885
11
137.927
21
-109.88
0
LINE
8
BLACK
6
CONTINUOUS
10
137.927
20
-109.88
11
137.887
21
-109.847
0
LINE
8
BLACK
6
CONTINUOUS
10
137.887
20
-109.847
11
137.879
21
-109.796
0
LINE
8
BLACK
6
CONTINUOUS
10
137.879
20
-109.796
11
137.904
21
-109.752
0
LINE
8
BLACK
6
CONTINUOUS
10
137.904
20
-109.752
11
137.952
21
-109.735
0
LINE
8
BLACK
6
CONTINUOUS
10
137.952
20
-109.735
11
138.744
21
-109.735
0
LINE
8
BLACK
6
CONTINUOUS
10
138.744
20
-109.735
11
138.813
21
-109.7
0
LINE
8
BLACK
6
CONTINUOUS
10
138.813
20
-109.7
11
138.843
21
-109.67
0
LINE
8
BLACK
6
CONTINUOUS
10
138.843
20
-109.67
11
138.877
21
-109.601
0
LINE
8
BLACK
6
CONTINUOUS
10
138.877
20
-109.601
11
138.877
21
-109.446
0
LINE
8
BLACK
6
CONTINUOUS
10
138.877
20
-109.446
11
138.843
21
-109.378
0
LINE
8
BLACK
6
CONTINUOUS
10
138.843
20
-109.378
11
138.813
21
-109.347
0
LINE
8
BLACK
6
CONTINUOUS
10
138.813
20
-109.347
11
138.744
21
-109.313
0
LINE
8
BLACK
6
CONTINUOUS
10
138.744
20
-109.313
11
137.952
21
-109.313
0
LINE
8
BLACK
6
CONTINUOUS
10
137.952
20
-109.313
11
137.927
21
-109.309
0
LINE
8
BLACK
6
CONTINUOUS
10
137.927
20
-109.309
11
137.887
21
-109.276
0
LINE
8
BLACK
6
CONTINUOUS
10
137.887
20
-109.276
11
137.879
21
-109.225
0
LINE
8
BLACK
6
CONTINUOUS
10
137.879
20
-109.225
11
137.904
21
-109.181
0
LINE
8
BLACK
6
CONTINUOUS
10
137.904
20
-109.181
11
137.952
21
-109.163
0
LINE
8
BLACK
6
CONTINUOUS
10
137.952
20
-109.163
11
138.762
21
-109.163
0
LINE
8
BLACK
6
CONTINUOUS
10
138.762
20
-109.163
11
138.788
21
-109.168
0
LINE
8
BLACK
6
CONTINUOUS
10
133.477
20
-77.4576
11
133.495
21
-77.5
0
LINE
8
BLACK
6
CONTINUOUS
10
133.495
20
-77.5
11
133.495
21
-78.06
0
LINE
8
BLACK
6
CONTINUOUS
10
133.495
20
-78.06
11
135.555
21
-78.06
0
LINE
8
BLACK
6
CONTINUOUS
10
135.555
20
-78.06
11
135.597
21
-78.0776
0
LINE
8
BLACK
6
CONTINUOUS
10
135.597
20
-78.0776
11
135.615
21
-78.12
0
LINE
8
BLACK
6
CONTINUOUS
10
135.615
20
-78.12
11
135.597
21
-78.1624
0
LINE
8
BLACK
6
CONTINUOUS
10
135.597
20
-78.1624
11
135.555
21
-78.18
0
LINE
8
BLACK
6
CONTINUOUS
10
135.555
20
-78.18
11
133.435
21
-78.18
0
LINE
8
BLACK
6
CONTINUOUS
10
133.435
20
-78.18
11
133.393
21
-78.1624
0
LINE
8
BLACK
6
CONTINUOUS
10
133.393
20
-78.1624
11
133.375
21
-78.12
0
LINE
8
BLACK
6
CONTINUOUS
10
133.375
20
-78.12
11
133.375
21
-77.5
0
LINE
8
BLACK
6
CONTINUOUS
10
133.375
20
-77.5
11
133.393
21
-77.4576
0
LINE
8
BLACK
6
CONTINUOUS
10
133.393
20
-77.4576
11
133.435
21
-77.44
0
LINE
8
BLACK
6
CONTINUOUS
10
133.435
20
-77.44
11
133.477
21
-77.4576
0
LINE
8
BLACK
6
CONTINUOUS
10
147.513
20
-78.1624
11
147.495
21
-78.12
0
LINE
8
BLACK
6
CONTINUOUS
10
147.495
20
-78.12
11
147.513
21
-78.0776
0
LINE
8
BLACK
6
CONTINUOUS
10
147.513
20
-78.0776
11
147.555
21
-78.06
0
LINE
8
BLACK
6
CONTINUOUS
10
147.555
20
-78.06
11
149.615
21
-78.06
0
LINE
8
BLACK
6
CONTINUOUS
10
149.615
20
-78.06
11
149.615
21
-77.5
0
LINE
8
BLACK
6
CONTINUOUS
10
149.615
20
-77.5
11
149.633
21
-77.4576
0
LINE
8
BLACK
6
CONTINUOUS
10
149.633
20
-77.4576
11
149.675
21
-77.44
0
LINE
8
BLACK
6
CONTINUOUS
10
149.675
20
-77.44
11
149.717
21
-77.4576
0
LINE
8
BLACK
6
CONTINUOUS
10
149.717
20
-77.4576
11
149.735
21
-77.5
0
LINE
8
BLACK
6
CONTINUOUS
10
149.735
20
-77.5
11
149.735
21
-78.12
0
LINE
8
BLACK
6
CONTINUOUS
10
149.735
20
-78.12
11
149.717
21
-78.1624
0
LINE
8
BLACK
6
CONTINUOUS
10
149.717
20
-78.1624
11
149.675
21
-78.18
0
LINE
8
BLACK
6
CONTINUOUS
10
149.675
20
-78.18
11
147.555
21
-78.18
0
LINE
8
BLACK
6
CONTINUOUS
10
147.555
20
-78.18
11
147.513
21
-78.1624
0
LINE
8
BLACK
6
CONTINUOUS
10
128.23
20
-77.1136
11
128.278
21
-77.1613
0
LINE
8
BLACK
6
CONTINUOUS
10
128.278
20
-77.1613
11
128.291
21
-77.1796
0
LINE
8
BLACK
6
CONTINUOUS
10
128.291
20
-77.1796
11
128.292
21
-77.1807
0
LINE
8
BLACK
6
CONTINUOUS
10
128.292
20
-77.1807
11
128.339
21
-77.276
0
LINE
8
BLACK
6
CONTINUOUS
10
128.339
20
-77.276
11
128.347
21
-77.3009
0
LINE
8
BLACK
6
CONTINUOUS
10
128.347
20
-77.3009
11
128.346
21
-77.3053
0
LINE
8
BLACK
6
CONTINUOUS
10
128.346
20
-77.3053
11
128.347
21
-77.3095
0
LINE
8
BLACK
6
CONTINUOUS
10
128.347
20
-77.3095
11
128.347
21
-77.5952
0
LINE
8
BLACK
6
CONTINUOUS
10
128.347
20
-77.5952
11
128.343
21
-77.6209
0
LINE
8
BLACK
6
CONTINUOUS
10
128.343
20
-77.6209
11
128.34
21
-77.6243
0
LINE
8
BLACK
6
CONTINUOUS
10
128.34
20
-77.6243
11
128.339
21
-77.6288
0
LINE
8
BLACK
6
CONTINUOUS
10
128.339
20
-77.6288
11
128.292
21
-77.724
0
LINE
8
BLACK
6
CONTINUOUS
10
128.292
20
-77.724
11
128.278
21
-77.742
0
LINE
8
BLACK
6
CONTINUOUS
10
128.278
20
-77.742
11
128.278
21
-77.7435
0
LINE
8
BLACK
6
CONTINUOUS
10
128.278
20
-77.7435
11
128.23
21
-77.7911
0
LINE
8
BLACK
6
CONTINUOUS
10
128.23
20
-77.7911
11
128.212
21
-77.804
0
LINE
8
BLACK
6
CONTINUOUS
10
128.212
20
-77.804
11
128.211
21
-77.8052
0
LINE
8
BLACK
6
CONTINUOUS
10
128.211
20
-77.8052
11
128.115
21
-77.8528
0
LINE
8
BLACK
6
CONTINUOUS
10
128.115
20
-77.8528
11
128.09
21
-77.8602
0
LINE
8
BLACK
6
CONTINUOUS
10
128.09
20
-77.8602
11
128.086
21
-77.8592
0
LINE
8
BLACK
6
CONTINUOUS
10
128.086
20
-77.8592
11
128.082
21
-77.8607
0
LINE
8
BLACK
6
CONTINUOUS
10
128.082
20
-77.8607
11
127.844
21
-77.8607
0
LINE
8
BLACK
6
CONTINUOUS
10
127.844
20
-77.8607
11
127.818
21
-77.8562
0
LINE
8
BLACK
6
CONTINUOUS
10
127.818
20
-77.8562
11
127.815
21
-77.8533
0
LINE
8
BLACK
6
CONTINUOUS
10
127.815
20
-77.8533
11
127.81
21
-77.8528
0
LINE
8
BLACK
6
CONTINUOUS
10
127.81
20
-77.8528
11
127.715
21
-77.8052
0
LINE
8
BLACK
6
CONTINUOUS
10
127.715
20
-77.8052
11
127.697
21
-77.7918
0
LINE
8
BLACK
6
CONTINUOUS
10
127.697
20
-77.7918
11
127.696
21
-77.7911
0
LINE
8
BLACK
6
CONTINUOUS
10
127.696
20
-77.7911
11
127.648
21
-77.7435
0
LINE
8
BLACK
6
CONTINUOUS
10
127.648
20
-77.7435
11
127.635
21
-77.7251
0
LINE
8
BLACK
6
CONTINUOUS
10
127.635
20
-77.7251
11
127.634
21
-77.724
0
LINE
8
BLACK
6
CONTINUOUS
10
127.634
20
-77.724
11
127.586
21
-77.6288
0
LINE
8
BLACK
6
CONTINUOUS
10
127.586
20
-77.6288
11
127.582
21
-77.6145
0
LINE
8
BLACK
6
CONTINUOUS
10
127.582
20
-77.6145
11
127.322
21
-77.8422
0
LINE
8
BLACK
6
CONTINUOUS
10
127.322
20
-77.8422
11
127.312
21
-77.848
0
LINE
8
BLACK
6
CONTINUOUS
10
127.312
20
-77.848
11
127.31
21
-77.8507
0
LINE
8
BLACK
6
CONTINUOUS
10
127.31
20
-77.8507
11
127.307
21
-77.8512
0
LINE
8
BLACK
6
CONTINUOUS
10
127.307
20
-77.8512
11
127.299
21
-77.8556
0
LINE
8
BLACK
6
CONTINUOUS
10
127.299
20
-77.8556
11
127.279
21
-77.8561
0
LINE
8
BLACK
6
CONTINUOUS
10
127.279
20
-77.8561
11
127.259
21
-77.8596
0
LINE
8
BLACK
6
CONTINUOUS
10
127.259
20
-77.8596
11
127.254
21
-77.8566
0
LINE
8
BLACK
6
CONTINUOUS
10
127.254
20
-77.8566
11
127.248
21
-77.8567
0
LINE
8
BLACK
6
CONTINUOUS
10
127.248
20
-77.8567
11
127.232
21
-77.844
0
LINE
8
BLACK
6
CONTINUOUS
10
127.232
20
-77.844
11
127.215
21
-77.8339
0
LINE
8
BLACK
6
CONTINUOUS
10
127.215
20
-77.8339
11
127.213
21
-77.8283
0
LINE
8
BLACK
6
CONTINUOUS
10
127.213
20
-77.8283
11
127.208
21
-77.8246
0
LINE
8
BLACK
6
CONTINUOUS
10
127.208
20
-77.8246
11
127.204
21
-77.8047
0
LINE
8
BLACK
6
CONTINUOUS
10
127.204
20
-77.8047
11
127.197
21
-77.7857
0
LINE
8
BLACK
6
CONTINUOUS
10
127.197
20
-77.7857
11
127.197
21
-77.1667
0
LINE
8
BLACK
6
CONTINUOUS
10
127.197
20
-77.1667
11
127.202
21
-77.141
0
LINE
8
BLACK
6
CONTINUOUS
10
127.202
20
-77.141
11
127.235
21
-77.1017
0
LINE
8
BLACK
6
CONTINUOUS
10
127.235
20
-77.1017
11
127.285
21
-77.0928
0
LINE
8
BLACK
6
CONTINUOUS
10
127.285
20
-77.0928
11
127.33
21
-77.1185
0
LINE
8
BLACK
6
CONTINUOUS
10
127.33
20
-77.1185
11
127.347
21
-77.1667
0
LINE
8
BLACK
6
CONTINUOUS
10
127.347
20
-77.1667
11
127.347
21
-77.6204
0
LINE
8
BLACK
6
CONTINUOUS
10
127.347
20
-77.6204
11
127.604
21
-77.3959
0
LINE
8
BLACK
6
CONTINUOUS
10
127.604
20
-77.3959
11
127.614
21
-77.3901
0
LINE
8
BLACK
6
CONTINUOUS
10
127.614
20
-77.3901
11
127.616
21
-77.3874
0
LINE
8
BLACK
6
CONTINUOUS
10
127.616
20
-77.3874
11
127.619
21
-77.3869
0
LINE
8
BLACK
6
CONTINUOUS
10
127.619
20
-77.3869
11
127.626
21
-77.3824
0
LINE
8
BLACK
6
CONTINUOUS
10
127.626
20
-77.3824
11
127.646
21
-77.382
0
LINE
8
BLACK
6
CONTINUOUS
10
127.646
20
-77.382
11
127.666
21
-77.3785
0
LINE
8
BLACK
6
CONTINUOUS
10
127.666
20
-77.3785
11
127.672
21
-77.3815
0
LINE
8
BLACK
6
CONTINUOUS
10
127.672
20
-77.3815
11
127.678
21
-77.3814
0
LINE
8
BLACK
6
CONTINUOUS
10
127.678
20
-77.3814
11
127.693
21
-77.3941
0
LINE
8
BLACK
6
CONTINUOUS
10
127.693
20
-77.3941
11
127.711
21
-77.4042
0
LINE
8
BLACK
6
CONTINUOUS
10
127.711
20
-77.4042
11
127.713
21
-77.4098
0
LINE
8
BLACK
6
CONTINUOUS
10
127.713
20
-77.4098
11
127.717
21
-77.4135
0
LINE
8
BLACK
6
CONTINUOUS
10
127.717
20
-77.4135
11
127.721
21
-77.4334
0
LINE
8
BLACK
6
CONTINUOUS
10
127.721
20
-77.4334
11
127.728
21
-77.4524
0
LINE
8
BLACK
6
CONTINUOUS
10
127.728
20
-77.4524
11
127.728
21
-77.5775
0
LINE
8
BLACK
6
CONTINUOUS
10
127.728
20
-77.5775
11
127.763
21
-77.646
0
LINE
8
BLACK
6
CONTINUOUS
10
127.763
20
-77.646
11
127.793
21
-77.6765
0
LINE
8
BLACK
6
CONTINUOUS
10
127.793
20
-77.6765
11
127.862
21
-77.7107
0
LINE
8
BLACK
6
CONTINUOUS
10
127.862
20
-77.7107
11
128.064
21
-77.7107
0
LINE
8
BLACK
6
CONTINUOUS
10
128.064
20
-77.7107
11
128.133
21
-77.6765
0
LINE
8
BLACK
6
CONTINUOUS
10
128.133
20
-77.6765
11
128.163
21
-77.646
0
LINE
8
BLACK
6
CONTINUOUS
10
128.163
20
-77.646
11
128.197
21
-77.5775
0
LINE
8
BLACK
6
CONTINUOUS
10
128.197
20
-77.5775
11
128.197
21
-77.3272
0
LINE
8
BLACK
6
CONTINUOUS
10
128.197
20
-77.3272
11
128.163
21
-77.2587
0
LINE
8
BLACK
6
CONTINUOUS
10
128.163
20
-77.2587
11
128.124
21
-77.2197
0
LINE
8
BLACK
6
CONTINUOUS
10
128.124
20
-77.2197
11
128.109
21
-77.1984
0
LINE
8
BLACK
6
CONTINUOUS
10
128.109
20
-77.1984
11
128.105
21
-77.1473
0
LINE
8
BLACK
6
CONTINUOUS
10
128.105
20
-77.1473
11
128.134
21
-77.1052
0
LINE
8
BLACK
6
CONTINUOUS
10
128.134
20
-77.1052
11
128.184
21
-77.092
0
LINE
8
BLACK
6
CONTINUOUS
10
128.184
20
-77.092
11
128.23
21
-77.1136
0
LINE
8
BLACK
6
CONTINUOUS
10
125.132
20
-76.2305
11
125.15
21
-76.2729
0
LINE
8
BLACK
6
CONTINUOUS
10
125.15
20
-76.2729
11
125.15
21
-77.7271
0
LINE
8
BLACK
6
CONTINUOUS
10
125.15
20
-77.7271
11
125.132
21
-77.7695
0
LINE
8
BLACK
6
CONTINUOUS
10
125.132
20
-77.7695
11
125.09
21
-77.7871
0
LINE
8
BLACK
6
CONTINUOUS
10
125.09
20
-77.7871
11
125.048
21
-77.7695
0
LINE
8
BLACK
6
CONTINUOUS
10
125.048
20
-77.7695
11
125.03
21
-77.7271
0
LINE
8
BLACK
6
CONTINUOUS
10
125.03
20
-77.7271
11
125.03
21
-76.2729
0
LINE
8
BLACK
6
CONTINUOUS
10
125.03
20
-76.2729
11
125.048
21
-76.2305
0
LINE
8
BLACK
6
CONTINUOUS
10
125.048
20
-76.2305
11
125.09
21
-76.2129
0
LINE
8
BLACK
6
CONTINUOUS
10
125.09
20
-76.2129
11
125.132
21
-76.2305
0
LINE
8
BLACK
6
CONTINUOUS
10
126.952
20
-76.2305
11
126.97
21
-76.2729
0
LINE
8
BLACK
6
CONTINUOUS
10
126.97
20
-76.2729
11
126.97
21
-77.7271
0
LINE
8
BLACK
6
CONTINUOUS
10
126.97
20
-77.7271
11
126.952
21
-77.7695
0
LINE
8
BLACK
6
CONTINUOUS
10
126.952
20
-77.7695
11
126.91
21
-77.7871
0
LINE
8
BLACK
6
CONTINUOUS
10
126.91
20
-77.7871
11
126.868
21
-77.7695
0
LINE
8
BLACK
6
CONTINUOUS
10
126.868
20
-77.7695
11
126.85
21
-77.7271
0
LINE
8
BLACK
6
CONTINUOUS
10
126.85
20
-77.7271
11
126.85
21
-76.2729
0
LINE
8
BLACK
6
CONTINUOUS
10
126.85
20
-76.2729
11
126.868
21
-76.2305
0
LINE
8
BLACK
6
CONTINUOUS
10
126.868
20
-76.2305
11
126.91
21
-76.2129
0
LINE
8
BLACK
6
CONTINUOUS
10
126.91
20
-76.2129
11
126.952
21
-76.2305
0
LINE
8
BLACK
6
CONTINUOUS
10
128.298
20
-76.1914
11
128.337
21
-76.2244
0
LINE
8
BLACK
6
CONTINUOUS
10
128.337
20
-76.2244
11
128.346
21
-76.2749
0
LINE
8
BLACK
6
CONTINUOUS
10
128.346
20
-76.2749
11
128.321
21
-76.3194
0
LINE
8
BLACK
6
CONTINUOUS
10
128.321
20
-76.3194
11
128.272
21
-76.3369
0
LINE
8
BLACK
6
CONTINUOUS
10
128.272
20
-76.3369
11
127.871
21
-76.3369
0
LINE
8
BLACK
6
CONTINUOUS
10
127.871
20
-76.3369
11
127.871
21
-76.461
0
LINE
8
BLACK
6
CONTINUOUS
10
127.871
20
-76.461
11
128.315
21
-76.7719
0
LINE
8
BLACK
6
CONTINUOUS
10
128.315
20
-76.7719
11
128.334
21
-76.7903
0
LINE
8
BLACK
6
CONTINUOUS
10
128.334
20
-76.7903
11
128.347
21
-76.8399
0
LINE
8
BLACK
6
CONTINUOUS
10
128.347
20
-76.8399
11
128.325
21
-76.8864
0
LINE
8
BLACK
6
CONTINUOUS
10
128.325
20
-76.8864
11
128.279
21
-76.908
0
LINE
8
BLACK
6
CONTINUOUS
10
128.279
20
-76.908
11
128.229
21
-76.8948
0
LINE
8
BLACK
6
CONTINUOUS
10
128.229
20
-76.8948
11
127.871
21
-76.6439
0
LINE
8
BLACK
6
CONTINUOUS
10
127.871
20
-76.6439
11
127.867
21
-76.6685
0
LINE
8
BLACK
6
CONTINUOUS
10
127.867
20
-76.6685
11
127.864
21
-76.6719
0
LINE
8
BLACK
6
CONTINUOUS
10
127.864
20
-76.6719
11
127.863
21
-76.6764
0
LINE
8
BLACK
6
CONTINUOUS
10
127.863
20
-76.6764
11
127.816
21
-76.7716
0
LINE
8
BLACK
6
CONTINUOUS
10
127.816
20
-76.7716
11
127.802
21
-76.7896
0
LINE
8
BLACK
6
CONTINUOUS
10
127.802
20
-76.7896
11
127.802
21
-76.7911
0
LINE
8
BLACK
6
CONTINUOUS
10
127.802
20
-76.7911
11
127.754
21
-76.8387
0
LINE
8
BLACK
6
CONTINUOUS
10
127.754
20
-76.8387
11
127.736
21
-76.8516
0
LINE
8
BLACK
6
CONTINUOUS
10
127.736
20
-76.8516
11
127.734
21
-76.8528
0
LINE
8
BLACK
6
CONTINUOUS
10
127.734
20
-76.8528
11
127.639
21
-76.9004
0
LINE
8
BLACK
6
CONTINUOUS
10
127.639
20
-76.9004
11
127.614
21
-76.9078
0
LINE
8
BLACK
6
CONTINUOUS
10
127.614
20
-76.9078
11
127.61
21
-76.9068
0
LINE
8
BLACK
6
CONTINUOUS
10
127.61
20
-76.9068
11
127.606
21
-76.9083
0
LINE
8
BLACK
6
CONTINUOUS
10
127.606
20
-76.9083
11
127.463
21
-76.9083
0
LINE
8
BLACK
6
CONTINUOUS
10
127.463
20
-76.9083
11
127.437
21
-76.9038
0
LINE
8
BLACK
6
CONTINUOUS
10
127.437
20
-76.9038
11
127.434
21
-76.9009
0
LINE
8
BLACK
6
CONTINUOUS
10
127.434
20
-76.9009
11
127.429
21
-76.9004
0
LINE
8
BLACK
6
CONTINUOUS
10
127.429
20
-76.9004
11
127.334
21
-76.8528
0
LINE
8
BLACK
6
CONTINUOUS
10
127.334
20
-76.8528
11
127.316
21
-76.8394
0
LINE
8
BLACK
6
CONTINUOUS
10
127.316
20
-76.8394
11
127.315
21
-76.8387
0
LINE
8
BLACK
6
CONTINUOUS
10
127.315
20
-76.8387
11
127.267
21
-76.7911
0
LINE
8
BLACK
6
CONTINUOUS
10
127.267
20
-76.7911
11
127.254
21
-76.7728
0
LINE
8
BLACK
6
CONTINUOUS
10
127.254
20
-76.7728
11
127.253
21
-76.7716
0
LINE
8
BLACK
6
CONTINUOUS
10
127.253
20
-76.7716
11
127.205
21
-76.6764
0
LINE
8
BLACK
6
CONTINUOUS
10
127.205
20
-76.6764
11
127.198
21
-76.6514
0
LINE
8
BLACK
6
CONTINUOUS
10
127.198
20
-76.6514
11
127.199
21
-76.6471
0
LINE
8
BLACK
6
CONTINUOUS
10
127.199
20
-76.6471
11
127.197
21
-76.6429
0
LINE
8
BLACK
6
CONTINUOUS
10
127.197
20
-76.6429
11
127.197
21
-76.2619
0
LINE
8
BLACK
6
CONTINUOUS
10
127.197
20
-76.2619
11
127.199
21
-76.2522
0
LINE
8
BLACK
6
CONTINUOUS
10
127.199
20
-76.2522
11
127.199
21
-76.2489
0
LINE
8
BLACK
6
CONTINUOUS
10
127.199
20
-76.2489
11
127.2
21
-76.246
0
LINE
8
BLACK
6
CONTINUOUS
10
127.2
20
-76.246
11
127.202
21
-76.2363
0
LINE
8
BLACK
6
CONTINUOUS
10
127.202
20
-76.2363
11
127.214
21
-76.2213
0
LINE
8
BLACK
6
CONTINUOUS
10
127.214
20
-76.2213
11
127.224
21
-76.2045
0
LINE
8
BLACK
6
CONTINUOUS
10
127.224
20
-76.2045
11
127.231
21
-76.2021
0
LINE
8
BLACK
6
CONTINUOUS
10
127.231
20
-76.2021
11
127.235
21
-76.197
0
LINE
8
BLACK
6
CONTINUOUS
10
127.235
20
-76.197
11
127.254
21
-76.1936
0
LINE
8
BLACK
6
CONTINUOUS
10
127.254
20
-76.1936
11
127.272
21
-76.1869
0
LINE
8
BLACK
6
CONTINUOUS
10
127.272
20
-76.1869
11
128.272
21
-76.1869
0
LINE
8
BLACK
6
CONTINUOUS
10
128.272
20
-76.1869
11
128.298
21
-76.1914
0
LINE
8
BLACK
6
CONTINUOUS
10
127.347
20
-76.3369
11
127.347
21
-76.6252
0
LINE
8
BLACK
6
CONTINUOUS
10
127.347
20
-76.6252
11
127.382
21
-76.6937
0
LINE
8
BLACK
6
CONTINUOUS
10
127.382
20
-76.6937
11
127.412
21
-76.7241
0
LINE
8
BLACK
6
CONTINUOUS
10
127.412
20
-76.7241
11
127.481
21
-76.7583
0
LINE
8
BLACK
6
CONTINUOUS
10
127.481
20
-76.7583
11
127.588
21
-76.7583
0
LINE
8
BLACK
6
CONTINUOUS
10
127.588
20
-76.7583
11
127.657
21
-76.7241
0
LINE
8
BLACK
6
CONTINUOUS
10
127.657
20
-76.7241
11
127.687
21
-76.6937
0
LINE
8
BLACK
6
CONTINUOUS
10
127.687
20
-76.6937
11
127.721
21
-76.6252
0
LINE
8
BLACK
6
CONTINUOUS
10
127.721
20
-76.6252
11
127.721
21
-76.3369
0
LINE
8
BLACK
6
CONTINUOUS
10
127.721
20
-76.3369
11
127.347
21
-76.3369
0
LINE
8
BLACK
6
CONTINUOUS
10
124.108
20
-72.1024
11
124.09
21
-72.06
0
LINE
8
BLACK
6
CONTINUOUS
10
124.09
20
-72.06
11
124.09
21
-65.94
0
LINE
8
BLACK
6
CONTINUOUS
10
124.09
20
-65.94
11
124.108
21
-65.8976
0
LINE
8
BLACK
6
CONTINUOUS
10
124.108
20
-65.8976
11
124.15
21
-65.88
0
LINE
8
BLACK
6
CONTINUOUS
10
124.15
20
-65.88
11
127.85
21
-65.88
0
LINE
8
BLACK
6
CONTINUOUS
10
127.85
20
-65.88
11
127.892
21
-65.8976
0
LINE
8
BLACK
6
CONTINUOUS
10
127.892
20
-65.8976
11
127.91
21
-65.94
0
LINE
8
BLACK
6
CONTINUOUS
10
127.91
20
-65.94
11
127.91
21
-72.06
0
LINE
8
BLACK
6
CONTINUOUS
10
127.91
20
-72.06
11
127.892
21
-72.1024
0
LINE
8
BLACK
6
CONTINUOUS
10
127.892
20
-72.1024
11
127.85
21
-72.12
0
LINE
8
BLACK
6
CONTINUOUS
10
127.85
20
-72.12
11
124.15
21
-72.12
0
LINE
8
BLACK
6
CONTINUOUS
10
124.15
20
-72.12
11
124.108
21
-72.1024
0
LINE
8
BLACK
6
CONTINUOUS
10
124.21
20
-66
11
124.21
21
-72
0
LINE
8
BLACK
6
CONTINUOUS
10
124.21
20
-72
11
127.79
21
-72
0
LINE
8
BLACK
6
CONTINUOUS
10
127.79
20
-72
11
127.79
21
-66
0
LINE
8
BLACK
6
CONTINUOUS
10
127.79
20
-66
11
124.21
21
-66
0
LINE
8
BLACK
6
CONTINUOUS
10
128.383
20
-69.7017
11
128.411
21
-69.7445
0
LINE
8
BLACK
6
CONTINUOUS
10
128.411
20
-69.7445
11
128.405
21
-69.7954
0
LINE
8
BLACK
6
CONTINUOUS
10
128.405
20
-69.7954
11
128.358
21
-69.8907
0
LINE
8
BLACK
6
CONTINUOUS
10
128.358
20
-69.8907
11
128.344
21
-69.9087
0
LINE
8
BLACK
6
CONTINUOUS
10
128.344
20
-69.9087
11
128.344
21
-69.9102
0
LINE
8
BLACK
6
CONTINUOUS
10
128.344
20
-69.9102
11
128.281
21
-69.9726
0
LINE
8
BLACK
6
CONTINUOUS
10
128.281
20
-69.9726
11
128.977
21
-69.9726
0
LINE
8
BLACK
6
CONTINUOUS
10
128.977
20
-69.9726
11
128.977
21
-69.7619
0
LINE
8
BLACK
6
CONTINUOUS
10
128.977
20
-69.7619
11
128.982
21
-69.7363
0
LINE
8
BLACK
6
CONTINUOUS
10
128.982
20
-69.7363
11
129.015
21
-69.697
0
LINE
8
BLACK
6
CONTINUOUS
10
129.015
20
-69.697
11
129.065
21
-69.688
0
LINE
8
BLACK
6
CONTINUOUS
10
129.065
20
-69.688
11
129.11
21
-69.7137
0
LINE
8
BLACK
6
CONTINUOUS
10
129.11
20
-69.7137
11
129.127
21
-69.7619
0
LINE
8
BLACK
6
CONTINUOUS
10
129.127
20
-69.7619
11
129.127
21
-70.3333
0
LINE
8
BLACK
6
CONTINUOUS
10
129.127
20
-70.3333
11
129.123
21
-70.359
0
LINE
8
BLACK
6
CONTINUOUS
10
129.123
20
-70.359
11
129.09
21
-70.3983
0
LINE
8
BLACK
6
CONTINUOUS
10
129.09
20
-70.3983
11
129.039
21
-70.4072
0
LINE
8
BLACK
6
CONTINUOUS
10
129.039
20
-70.4072
11
128.995
21
-70.3815
0
LINE
8
BLACK
6
CONTINUOUS
10
128.995
20
-70.3815
11
128.977
21
-70.3333
0
LINE
8
BLACK
6
CONTINUOUS
10
128.977
20
-70.3333
11
128.977
21
-70.1226
0
LINE
8
BLACK
6
CONTINUOUS
10
128.977
20
-70.1226
11
128.052
21
-70.1226
0
LINE
8
BLACK
6
CONTINUOUS
10
128.052
20
-70.1226
11
128.027
21
-70.1181
0
LINE
8
BLACK
6
CONTINUOUS
10
128.027
20
-70.1181
11
128.023
21
-70.1153
0
LINE
8
BLACK
6
CONTINUOUS
10
128.023
20
-70.1153
11
128.019
21
-70.1148
0
LINE
8
BLACK
6
CONTINUOUS
10
128.019
20
-70.1148
11
128.004
21
-70.0991
0
LINE
8
BLACK
6
CONTINUOUS
10
128.004
20
-70.0991
11
127.987
21
-70.0851
0
LINE
8
BLACK
6
CONTINUOUS
10
127.987
20
-70.0851
11
127.987
21
-70.0809
0
LINE
8
BLACK
6
CONTINUOUS
10
127.987
20
-70.0809
11
127.984
21
-70.0778
0
LINE
8
BLACK
6
CONTINUOUS
10
127.984
20
-70.0778
11
127.982
21
-70.056
0
LINE
8
BLACK
6
CONTINUOUS
10
127.982
20
-70.056
11
127.979
21
-70.0346
0
LINE
8
BLACK
6
CONTINUOUS
10
127.979
20
-70.0346
11
127.981
21
-70.0309
0
LINE
8
BLACK
6
CONTINUOUS
10
127.981
20
-70.0309
11
127.98
21
-70.0266
0
LINE
8
BLACK
6
CONTINUOUS
10
127.98
20
-70.0266
11
127.993
21
-70.009
0
LINE
8
BLACK
6
CONTINUOUS
10
127.993
20
-70.009
11
128.004
21
-69.9902
0
LINE
8
BLACK
6
CONTINUOUS
10
128.004
20
-69.9902
11
128.008
21
-69.9887
0
LINE
8
BLACK
6
CONTINUOUS
10
128.008
20
-69.9887
11
128.011
21
-69.9852
0
LINE
8
BLACK
6
CONTINUOUS
10
128.011
20
-69.9852
11
128.147
21
-69.8941
0
LINE
8
BLACK
6
CONTINUOUS
10
128.147
20
-69.8941
11
128.229
21
-69.8127
0
LINE
8
BLACK
6
CONTINUOUS
10
128.229
20
-69.8127
11
128.271
21
-69.7284
0
LINE
8
BLACK
6
CONTINUOUS
10
128.271
20
-69.7284
11
128.287
21
-69.7074
0
LINE
8
BLACK
6
CONTINUOUS
10
128.287
20
-69.7074
11
128.334
21
-69.687
0
LINE
8
BLACK
6
CONTINUOUS
10
128.334
20
-69.687
11
128.383
21
-69.7017
0
LINE
8
BLACK
6
CONTINUOUS
10
129.07
20
-68.7366
11
129.094
21
-68.7469
0
LINE
8
BLACK
6
CONTINUOUS
10
129.094
20
-68.7469
11
129.098
21
-68.7532
0
LINE
8
BLACK
6
CONTINUOUS
10
129.098
20
-68.7532
11
129.105
21
-68.7566
0
LINE
8
BLACK
6
CONTINUOUS
10
129.105
20
-68.7566
11
129.113
21
-68.7733
0
LINE
8
BLACK
6
CONTINUOUS
10
129.113
20
-68.7733
11
129.124
21
-68.7881
0
LINE
8
BLACK
6
CONTINUOUS
10
129.124
20
-68.7881
11
129.124
21
-68.7959
0
LINE
8
BLACK
6
CONTINUOUS
10
129.124
20
-68.7959
11
129.127
21
-68.8031
0
LINE
8
BLACK
6
CONTINUOUS
10
129.127
20
-68.8031
11
129.122
21
-68.8209
0
LINE
8
BLACK
6
CONTINUOUS
10
129.122
20
-68.8209
11
129.121
21
-68.8393
0
LINE
8
BLACK
6
CONTINUOUS
10
129.121
20
-68.8393
11
129.116
21
-68.845
0
LINE
8
BLACK
6
CONTINUOUS
10
129.116
20
-68.845
11
129.114
21
-68.8526
0
LINE
8
BLACK
6
CONTINUOUS
10
129.114
20
-68.8526
11
129.099
21
-68.8632
0
LINE
8
BLACK
6
CONTINUOUS
10
129.099
20
-68.8632
11
129.086
21
-68.8766
0
LINE
8
BLACK
6
CONTINUOUS
10
129.086
20
-68.8766
11
129.078
21
-68.8775
0
LINE
8
BLACK
6
CONTINUOUS
10
129.078
20
-68.8775
11
129.072
21
-68.882
0
LINE
8
BLACK
6
CONTINUOUS
10
129.072
20
-68.882
11
128.629
21
-69
0
LINE
8
BLACK
6
CONTINUOUS
10
128.629
20
-69
11
129.072
21
-69.118
0
LINE
8
BLACK
6
CONTINUOUS
10
129.072
20
-69.118
11
129.095
21
-69.129
0
LINE
8
BLACK
6
CONTINUOUS
10
129.095
20
-69.129
11
129.1
21
-69.1354
0
LINE
8
BLACK
6
CONTINUOUS
10
129.1
20
-69.1354
11
129.107
21
-69.139
0
LINE
8
BLACK
6
CONTINUOUS
10
129.107
20
-69.139
11
129.114
21
-69.1559
0
LINE
8
BLACK
6
CONTINUOUS
10
129.114
20
-69.1559
11
129.125
21
-69.171
0
LINE
8
BLACK
6
CONTINUOUS
10
129.125
20
-69.171
11
129.124
21
-69.1788
0
LINE
8
BLACK
6
CONTINUOUS
10
129.124
20
-69.1788
11
129.127
21
-69.186
0
LINE
8
BLACK
6
CONTINUOUS
10
129.127
20
-69.186
11
129.122
21
-69.2037
0
LINE
8
BLACK
6
CONTINUOUS
10
129.122
20
-69.2037
11
129.12
21
-69.2221
0
LINE
8
BLACK
6
CONTINUOUS
10
129.12
20
-69.2221
11
129.115
21
-69.2277
0
LINE
8
BLACK
6
CONTINUOUS
10
129.115
20
-69.2277
11
129.113
21
-69.2352
0
LINE
8
BLACK
6
CONTINUOUS
10
129.113
20
-69.2352
11
129.097
21
-69.2453
0
LINE
8
BLACK
6
CONTINUOUS
10
129.097
20
-69.2453
11
129.084
21
-69.2584
0
LINE
8
BLACK
6
CONTINUOUS
10
129.084
20
-69.2584
11
129.076
21
-69.2591
0
LINE
8
BLACK
6
CONTINUOUS
10
129.076
20
-69.2591
11
129.07
21
-69.2634
0
LINE
8
BLACK
6
CONTINUOUS
10
129.07
20
-69.2634
11
128.07
21
-69.5015
0
LINE
8
BLACK
6
CONTINUOUS
10
128.07
20
-69.5015
11
128.044
21
-69.5031
0
LINE
8
BLACK
6
CONTINUOUS
10
128.044
20
-69.5031
11
127.998
21
-69.4801
0
LINE
8
BLACK
6
CONTINUOUS
10
127.998
20
-69.4801
11
127.978
21
-69.433
0
LINE
8
BLACK
6
CONTINUOUS
10
127.978
20
-69.433
11
127.992
21
-69.3838
0
LINE
8
BLACK
6
CONTINUOUS
10
127.992
20
-69.3838
11
128.035
21
-69.3556
0
LINE
8
BLACK
6
CONTINUOUS
10
128.035
20
-69.3556
11
128.746
21
-69.1864
0
LINE
8
BLACK
6
CONTINUOUS
10
128.746
20
-69.1864
11
128.319
21
-69.0725
0
LINE
8
BLACK
6
CONTINUOUS
10
128.319
20
-69.0725
11
128.295
21
-69.0615
0
LINE
8
BLACK
6
CONTINUOUS
10
128.295
20
-69.0615
11
128.291
21
-69.0559
0
LINE
8
BLACK
6
CONTINUOUS
10
128.291
20
-69.0559
11
128.285
21
-69.053
0
LINE
8
BLACK
6
CONTINUOUS
10
128.285
20
-69.053
11
128.277
21
-69.0354
0
LINE
8
BLACK
6
CONTINUOUS
10
128.277
20
-69.0354
11
128.266
21
-69.0195
0
LINE
8
BLACK
6
CONTINUOUS
10
128.266
20
-69.0195
11
128.266
21
-69.0127
0
LINE
8
BLACK
6
CONTINUOUS
10
128.266
20
-69.0127
11
128.263
21
-69.0064
0
LINE
8
BLACK
6
CONTINUOUS
10
128.263
20
-69.0064
11
128.268
21
-68.9877
0
LINE
8
BLACK
6
CONTINUOUS
10
128.268
20
-68.9877
11
128.27
21
-68.9684
0
LINE
8
BLACK
6
CONTINUOUS
10
128.27
20
-68.9684
11
128.275
21
-68.9635
0
LINE
8
BLACK
6
CONTINUOUS
10
128.275
20
-68.9635
11
128.277
21
-68.9569
0
LINE
8
BLACK
6
CONTINUOUS
10
128.277
20
-68.9569
11
128.293
21
-68.9458
0
LINE
8
BLACK
6
CONTINUOUS
10
128.293
20
-68.9458
11
128.306
21
-68.9321
0
LINE
8
BLACK
6
CONTINUOUS
10
128.306
20
-68.9321
11
128.313
21
-68.9315
0
LINE
8
BLACK
6
CONTINUOUS
10
128.313
20
-68.9315
11
128.319
21
-68.9275
0
LINE
8
BLACK
6
CONTINUOUS
10
128.319
20
-68.9275
11
128.746
21
-68.8136
0
LINE
8
BLACK
6
CONTINUOUS
10
128.746
20
-68.8136
11
128.035
21
-68.6444
0
LINE
8
BLACK
6
CONTINUOUS
10
128.035
20
-68.6444
11
128.011
21
-68.634
0
LINE
8
BLACK
6
CONTINUOUS
10
128.011
20
-68.634
11
127.981
21
-68.5929
0
LINE
8
BLACK
6
CONTINUOUS
10
127.981
20
-68.5929
11
127.984
21
-68.5416
0
LINE
8
BLACK
6
CONTINUOUS
10
127.984
20
-68.5416
11
128.019
21
-68.5044
0
LINE
8
BLACK
6
CONTINUOUS
10
128.019
20
-68.5044
11
128.07
21
-68.4985
0
LINE
8
BLACK
6
CONTINUOUS
10
128.07
20
-68.4985
11
129.07
21
-68.7366
0
LINE
8
BLACK
6
CONTINUOUS
10
128.364
20
-67.5962
11
128.367
21
-67.5991
0
LINE
8
BLACK
6
CONTINUOUS
10
128.367
20
-67.5991
11
128.372
21
-67.5996
0
LINE
8
BLACK
6
CONTINUOUS
10
128.372
20
-67.5996
11
128.467
21
-67.6472
0
LINE
8
BLACK
6
CONTINUOUS
10
128.467
20
-67.6472
11
128.485
21
-67.6606
0
LINE
8
BLACK
6
CONTINUOUS
10
128.485
20
-67.6606
11
128.486
21
-67.6613
0
LINE
8
BLACK
6
CONTINUOUS
10
128.486
20
-67.6613
11
128.534
21
-67.7089
0
LINE
8
BLACK
6
CONTINUOUS
10
128.534
20
-67.7089
11
128.547
21
-67.7272
0
LINE
8
BLACK
6
CONTINUOUS
10
128.547
20
-67.7272
11
128.548
21
-67.7284
0
LINE
8
BLACK
6
CONTINUOUS
10
128.548
20
-67.7284
11
128.596
21
-67.8236
0
LINE
8
BLACK
6
CONTINUOUS
10
128.596
20
-67.8236
11
128.599
21
-67.836
0
LINE
8
BLACK
6
CONTINUOUS
10
128.599
20
-67.836
11
128.601
21
-67.839
0
LINE
8
BLACK
6
CONTINUOUS
10
128.601
20
-67.839
11
128.647
21
-68.0214
0
LINE
8
BLACK
6
CONTINUOUS
10
128.647
20
-68.0214
11
128.685
21
-68.0984
0
LINE
8
BLACK
6
CONTINUOUS
10
128.685
20
-68.0984
11
128.716
21
-68.1288
0
LINE
8
BLACK
6
CONTINUOUS
10
128.716
20
-68.1288
11
128.784
21
-68.1631
0
LINE
8
BLACK
6
CONTINUOUS
10
128.784
20
-68.1631
11
128.844
21
-68.1631
0
LINE
8
BLACK
6
CONTINUOUS
10
128.844
20
-68.1631
11
128.913
21
-68.1288
0
LINE
8
BLACK
6
CONTINUOUS
10
128.913
20
-68.1288
11
128.943
21
-68.0984
0
LINE
8
BLACK
6
CONTINUOUS
10
128.943
20
-68.0984
11
128.977
21
-68.0299
0
LINE
8
BLACK
6
CONTINUOUS
10
128.977
20
-68.0299
11
128.977
21
-67.8217
0
LINE
8
BLACK
6
CONTINUOUS
10
128.977
20
-67.8217
11
128.934
21
-67.6904
0
LINE
8
BLACK
6
CONTINUOUS
10
128.934
20
-67.6904
11
128.93
21
-67.6646
0
LINE
8
BLACK
6
CONTINUOUS
10
128.93
20
-67.6646
11
128.949
21
-67.6169
0
LINE
8
BLACK
6
CONTINUOUS
10
128.949
20
-67.6169
11
128.994
21
-67.5925
0
LINE
8
BLACK
6
CONTINUOUS
10
128.994
20
-67.5925
11
129.044
21
-67.6028
0
LINE
8
BLACK
6
CONTINUOUS
10
129.044
20
-67.6028
11
129.076
21
-67.6429
0
LINE
8
BLACK
6
CONTINUOUS
10
129.076
20
-67.6429
11
129.124
21
-67.7858
0
LINE
8
BLACK
6
CONTINUOUS
10
129.124
20
-67.7858
11
129.127
21
-67.808
0
LINE
8
BLACK
6
CONTINUOUS
10
129.127
20
-67.808
11
129.127
21
-67.8095
0
LINE
8
BLACK
6
CONTINUOUS
10
129.127
20
-67.8095
11
129.127
21
-68.0476
0
LINE
8
BLACK
6
CONTINUOUS
10
129.127
20
-68.0476
11
129.123
21
-68.0733
0
LINE
8
BLACK
6
CONTINUOUS
10
129.123
20
-68.0733
11
129.12
21
-68.0767
0
LINE
8
BLACK
6
CONTINUOUS
10
129.12
20
-68.0767
11
129.119
21
-68.0812
0
LINE
8
BLACK
6
CONTINUOUS
10
129.119
20
-68.0812
11
129.072
21
-68.1764
0
LINE
8
BLACK
6
CONTINUOUS
10
129.072
20
-68.1764
11
129.058
21
-68.1944
0
LINE
8
BLACK
6
CONTINUOUS
10
129.058
20
-68.1944
11
129.058
21
-68.1959
0
LINE
8
BLACK
6
CONTINUOUS
10
129.058
20
-68.1959
11
129.01
21
-68.2435
0
LINE
8
BLACK
6
CONTINUOUS
10
129.01
20
-68.2435
11
128.992
21
-68.2564
0
LINE
8
BLACK
6
CONTINUOUS
10
128.992
20
-68.2564
11
128.991
21
-68.2576
0
LINE
8
BLACK
6
CONTINUOUS
10
128.991
20
-68.2576
11
128.895
21
-68.3052
0
LINE
8
BLACK
6
CONTINUOUS
10
128.895
20
-68.3052
11
128.87
21
-68.3126
0
LINE
8
BLACK
6
CONTINUOUS
10
128.87
20
-68.3126
11
128.866
21
-68.3116
0
LINE
8
BLACK
6
CONTINUOUS
10
128.866
20
-68.3116
11
128.862
21
-68.3131
0
LINE
8
BLACK
6
CONTINUOUS
10
128.862
20
-68.3131
11
128.767
21
-68.3131
0
LINE
8
BLACK
6
CONTINUOUS
10
128.767
20
-68.3131
11
128.741
21
-68.3086
0
LINE
8
BLACK
6
CONTINUOUS
10
128.741
20
-68.3086
11
128.738
21
-68.3057
0
LINE
8
BLACK
6
CONTINUOUS
10
128.738
20
-68.3057
11
128.733
21
-68.3052
0
LINE
8
BLACK
6
CONTINUOUS
10
128.733
20
-68.3052
11
128.638
21
-68.2576
0
LINE
8
BLACK
6
CONTINUOUS
10
128.638
20
-68.2576
11
128.62
21
-68.2442
0
LINE
8
BLACK
6
CONTINUOUS
10
128.62
20
-68.2442
11
128.618
21
-68.2435
0
LINE
8
BLACK
6
CONTINUOUS
10
128.618
20
-68.2435
11
128.571
21
-68.1959
0
LINE
8
BLACK
6
CONTINUOUS
10
128.571
20
-68.1959
11
128.558
21
-68.1775
0
LINE
8
BLACK
6
CONTINUOUS
10
128.558
20
-68.1775
11
128.557
21
-68.1764
0
LINE
8
BLACK
6
CONTINUOUS
10
128.557
20
-68.1764
11
128.509
21
-68.0812
0
LINE
8
BLACK
6
CONTINUOUS
10
128.509
20
-68.0812
11
128.505
21
-68.0688
0
LINE
8
BLACK
6
CONTINUOUS
10
128.505
20
-68.0688
11
128.503
21
-68.0658
0
LINE
8
BLACK
6
CONTINUOUS
10
128.503
20
-68.0658
11
128.458
21
-67.8833
0
LINE
8
BLACK
6
CONTINUOUS
10
128.458
20
-67.8833
11
128.419
21
-67.8063
0
LINE
8
BLACK
6
CONTINUOUS
10
128.419
20
-67.8063
11
128.389
21
-67.7759
0
LINE
8
BLACK
6
CONTINUOUS
10
128.389
20
-67.7759
11
128.32
21
-67.7417
0
LINE
8
BLACK
6
CONTINUOUS
10
128.32
20
-67.7417
11
128.261
21
-67.7417
0
LINE
8
BLACK
6
CONTINUOUS
10
128.261
20
-67.7417
11
128.192
21
-67.7759
0
LINE
8
BLACK
6
CONTINUOUS
10
128.192
20
-67.7759
11
128.162
21
-67.8063
0
LINE
8
BLACK
6
CONTINUOUS
10
128.162
20
-67.8063
11
128.127
21
-67.8748
0
LINE
8
BLACK
6
CONTINUOUS
10
128.127
20
-67.8748
11
128.127
21
-68.0831
0
LINE
8
BLACK
6
CONTINUOUS
10
128.127
20
-68.0831
11
128.171
21
-68.2144
0
LINE
8
BLACK
6
CONTINUOUS
10
128.171
20
-68.2144
11
128.175
21
-68.2401
0
LINE
8
BLACK
6
CONTINUOUS
10
128.175
20
-68.2401
11
128.156
21
-68.2879
0
LINE
8
BLACK
6
CONTINUOUS
10
128.156
20
-68.2879
11
128.111
21
-68.3123
0
LINE
8
BLACK
6
CONTINUOUS
10
128.111
20
-68.3123
11
128.061
21
-68.302
0
LINE
8
BLACK
6
CONTINUOUS
10
128.061
20
-68.302
11
128.029
21
-68.2618
0
LINE
8
BLACK
6
CONTINUOUS
10
128.029
20
-68.2618
11
127.981
21
-68.119
0
LINE
8
BLACK
6
CONTINUOUS
10
127.981
20
-68.119
11
127.978
21
-68.0968
0
LINE
8
BLACK
6
CONTINUOUS
10
127.978
20
-68.0968
11
127.977
21
-68.0952
0
LINE
8
BLACK
6
CONTINUOUS
10
127.977
20
-68.0952
11
127.977
21
-67.8571
0
LINE
8
BLACK
6
CONTINUOUS
10
127.977
20
-67.8571
11
127.982
21
-67.8315
0
LINE
8
BLACK
6
CONTINUOUS
10
127.982
20
-67.8315
11
127.985
21
-67.8281
0
LINE
8
BLACK
6
CONTINUOUS
10
127.985
20
-67.8281
11
127.985
21
-67.8236
0
LINE
8
BLACK
6
CONTINUOUS
10
127.985
20
-67.8236
11
128.033
21
-67.7284
0
LINE
8
BLACK
6
CONTINUOUS
10
128.033
20
-67.7284
11
128.046
21
-67.7104
0
LINE
8
BLACK
6
CONTINUOUS
10
128.046
20
-67.7104
11
128.047
21
-67.7089
0
LINE
8
BLACK
6
CONTINUOUS
10
128.047
20
-67.7089
11
128.095
21
-67.6613
0
LINE
8
BLACK
6
CONTINUOUS
10
128.095
20
-67.6613
11
128.113
21
-67.6484
0
LINE
8
BLACK
6
CONTINUOUS
10
128.113
20
-67.6484
11
128.114
21
-67.6472
0
LINE
8
BLACK
6
CONTINUOUS
10
128.114
20
-67.6472
11
128.209
21
-67.5996
0
LINE
8
BLACK
6
CONTINUOUS
10
128.209
20
-67.5996
11
128.234
21
-67.5922
0
LINE
8
BLACK
6
CONTINUOUS
10
128.234
20
-67.5922
11
128.239
21
-67.5932
0
LINE
8
BLACK
6
CONTINUOUS
10
128.239
20
-67.5932
11
128.243
21
-67.5917
0
LINE
8
BLACK
6
CONTINUOUS
10
128.243
20
-67.5917
11
128.338
21
-67.5917
0
LINE
8
BLACK
6
CONTINUOUS
10
128.338
20
-67.5917
11
128.364
21
-67.5962
0
LINE
8
BLACK
6
CONTINUOUS
10
162.23
20
-65.1613
11
162.278
21
-65.2089
0
LINE
8
BLACK
6
CONTINUOUS
10
162.278
20
-65.2089
11
162.291
21
-65.2272
0
LINE
8
BLACK
6
CONTINUOUS
10
162.291
20
-65.2272
11
162.292
21
-65.2284
0
LINE
8
BLACK
6
CONTINUOUS
10
162.292
20
-65.2284
11
162.339
21
-65.3236
0
LINE
8
BLACK
6
CONTINUOUS
10
162.339
20
-65.3236
11
162.347
21
-65.3486
0
LINE
8
BLACK
6
CONTINUOUS
10
162.347
20
-65.3486
11
162.346
21
-65.3529
0
LINE
8
BLACK
6
CONTINUOUS
10
162.346
20
-65.3529
11
162.347
21
-65.3571
0
LINE
8
BLACK
6
CONTINUOUS
10
162.347
20
-65.3571
11
162.347
21
-65.5952
0
LINE
8
BLACK
6
CONTINUOUS
10
162.347
20
-65.5952
11
162.343
21
-65.6209
0
LINE
8
BLACK
6
CONTINUOUS
10
162.343
20
-65.6209
11
162.34
21
-65.6243
0
LINE
8
BLACK
6
CONTINUOUS
10
162.34
20
-65.6243
11
162.339
21
-65.6288
0
LINE
8
BLACK
6
CONTINUOUS
10
162.339
20
-65.6288
11
162.292
21
-65.724
0
LINE
8
BLACK
6
CONTINUOUS
10
162.292
20
-65.724
11
162.278
21
-65.742
0
LINE
8
BLACK
6
CONTINUOUS
10
162.278
20
-65.742
11
162.278
21
-65.7435
0
LINE
8
BLACK
6
CONTINUOUS
10
162.278
20
-65.7435
11
162.23
21
-65.7911
0
LINE
8
BLACK
6
CONTINUOUS
10
162.23
20
-65.7911
11
162.212
21
-65.804
0
LINE
8
BLACK
6
CONTINUOUS
10
162.212
20
-65.804
11
162.211
21
-65.8052
0
LINE
8
BLACK
6
CONTINUOUS
10
162.211
20
-65.8052
11
162.115
21
-65.8528
0
LINE
8
BLACK
6
CONTINUOUS
10
162.115
20
-65.8528
11
162.09
21
-65.8602
0
LINE
8
BLACK
6
CONTINUOUS
10
162.09
20
-65.8602
11
162.086
21
-65.8592
0
LINE
8
BLACK
6
CONTINUOUS
10
162.086
20
-65.8592
11
162.082
21
-65.8607
0
LINE
8
BLACK
6
CONTINUOUS
10
162.082
20
-65.8607
11
161.844
21
-65.8607
0
LINE
8
BLACK
6
CONTINUOUS
10
161.844
20
-65.8607
11
161.818
21
-65.8562
0
LINE
8
BLACK
6
CONTINUOUS
10
161.818
20
-65.8562
11
161.815
21
-65.8533
0
LINE
8
BLACK
6
CONTINUOUS
10
161.815
20
-65.8533
11
161.81
21
-65.8528
0
LINE
8
BLACK
6
CONTINUOUS
10
161.81
20
-65.8528
11
161.715
21
-65.8052
0
LINE
8
BLACK
6
CONTINUOUS
10
161.715
20
-65.8052
11
161.697
21
-65.7918
0
LINE
8
BLACK
6
CONTINUOUS
10
161.697
20
-65.7918
11
161.696
21
-65.7911
0
LINE
8
BLACK
6
CONTINUOUS
10
161.696
20
-65.7911
11
161.648
21
-65.7435
0
LINE
8
BLACK
6
CONTINUOUS
10
161.648
20
-65.7435
11
161.635
21
-65.7251
0
LINE
8
BLACK
6
CONTINUOUS
10
161.635
20
-65.7251
11
161.634
21
-65.724
0
LINE
8
BLACK
6
CONTINUOUS
10
161.634
20
-65.724
11
161.586
21
-65.6288
0
LINE
8
BLACK
6
CONTINUOUS
10
161.586
20
-65.6288
11
161.579
21
-65.6038
0
LINE
8
BLACK
6
CONTINUOUS
10
161.579
20
-65.6038
11
161.58
21
-65.5995
0
LINE
8
BLACK
6
CONTINUOUS
10
161.58
20
-65.5995
11
161.578
21
-65.5952
0
LINE
8
BLACK
6
CONTINUOUS
10
161.578
20
-65.5952
11
161.578
21
-65.3571
0
LINE
8
BLACK
6
CONTINUOUS
10
161.578
20
-65.3571
11
161.583
21
-65.3315
0
LINE
8
BLACK
6
CONTINUOUS
10
161.583
20
-65.3315
11
161.586
21
-65.3281
0
LINE
8
BLACK
6
CONTINUOUS
10
161.586
20
-65.3281
11
161.586
21
-65.3236
0
LINE
8
BLACK
6
CONTINUOUS
10
161.586
20
-65.3236
11
161.596
21
-65.305
0
LINE
8
BLACK
6
CONTINUOUS
10
161.596
20
-65.305
11
161.347
21
-65.3298
0
LINE
8
BLACK
6
CONTINUOUS
10
161.347
20
-65.3298
11
161.347
21
-65.7381
0
LINE
8
BLACK
6
CONTINUOUS
10
161.347
20
-65.7381
11
161.343
21
-65.7637
0
LINE
8
BLACK
6
CONTINUOUS
10
161.343
20
-65.7637
11
161.31
21
-65.803
0
LINE
8
BLACK
6
CONTINUOUS
10
161.31
20
-65.803
11
161.259
21
-65.812
0
LINE
8
BLACK
6
CONTINUOUS
10
161.259
20
-65.812
11
161.215
21
-65.7863
0
LINE
8
BLACK
6
CONTINUOUS
10
161.215
20
-65.7863
11
161.197
21
-65.7381
0
LINE
8
BLACK
6
CONTINUOUS
10
161.197
20
-65.7381
11
161.197
21
-65.2619
0
LINE
8
BLACK
6
CONTINUOUS
10
161.197
20
-65.2619
11
161.198
21
-65.258
0
LINE
8
BLACK
6
CONTINUOUS
10
161.198
20
-65.258
11
161.198
21
-65.2563
0
LINE
8
BLACK
6
CONTINUOUS
10
161.198
20
-65.2563
11
161.199
21
-65.2535
0
LINE
8
BLACK
6
CONTINUOUS
10
161.199
20
-65.2535
11
161.202
21
-65.2363
0
LINE
8
BLACK
6
CONTINUOUS
10
161.202
20
-65.2363
11
161.212
21
-65.2241
0
LINE
8
BLACK
6
CONTINUOUS
10
161.212
20
-65.2241
11
161.219
21
-65.2095
0
LINE
8
BLACK
6
CONTINUOUS
10
161.219
20
-65.2095
11
161.228
21
-65.205
0
LINE
8
BLACK
6
CONTINUOUS
10
161.228
20
-65.205
11
161.235
21
-65.197
0
LINE
8
BLACK
6
CONTINUOUS
10
161.235
20
-65.197
11
161.251
21
-65.1942
0
LINE
8
BLACK
6
CONTINUOUS
10
161.251
20
-65.1942
11
161.265
21
-65.1873
0
LINE
8
BLACK
6
CONTINUOUS
10
161.265
20
-65.1873
11
161.741
21
-65.1397
0
LINE
8
BLACK
6
CONTINUOUS
10
161.741
20
-65.1397
11
161.767
21
-65.1416
0
LINE
8
BLACK
6
CONTINUOUS
10
161.767
20
-65.1416
11
161.767
21
-65.1419
0
LINE
8
BLACK
6
CONTINUOUS
10
161.767
20
-65.1419
11
161.768
21
-65.1418
0
LINE
8
BLACK
6
CONTINUOUS
10
161.768
20
-65.1418
11
161.789
21
-65.1563
0
LINE
8
BLACK
6
CONTINUOUS
10
161.789
20
-65.1563
11
161.809
21
-65.1705
0
LINE
8
BLACK
6
CONTINUOUS
10
161.809
20
-65.1705
11
161.81
21
-65.171
0
LINE
8
BLACK
6
CONTINUOUS
10
161.81
20
-65.171
11
161.81
21
-65.1713
0
LINE
8
BLACK
6
CONTINUOUS
10
161.81
20
-65.1713
11
161.817
21
-65.1956
0
LINE
8
BLACK
6
CONTINUOUS
10
161.817
20
-65.1956
11
161.823
21
-65.2199
0
LINE
8
BLACK
6
CONTINUOUS
10
161.823
20
-65.2199
11
161.823
21
-65.2203
0
LINE
8
BLACK
6
CONTINUOUS
10
161.823
20
-65.2203
11
161.823
21
-65.2208
0
LINE
8
BLACK
6
CONTINUOUS
10
161.823
20
-65.2208
11
161.813
21
-65.2436
0
LINE
8
BLACK
6
CONTINUOUS
10
161.813
20
-65.2436
11
161.802
21
-65.2667
0
LINE
8
BLACK
6
CONTINUOUS
10
161.802
20
-65.2667
11
161.802
21
-65.2669
0
LINE
8
BLACK
6
CONTINUOUS
10
161.802
20
-65.2669
11
161.802
21
-65.2673
0
LINE
8
BLACK
6
CONTINUOUS
10
161.802
20
-65.2673
11
161.763
21
-65.3063
0
LINE
8
BLACK
6
CONTINUOUS
10
161.763
20
-65.3063
11
161.728
21
-65.3748
0
LINE
8
BLACK
6
CONTINUOUS
10
161.728
20
-65.3748
11
161.728
21
-65.5775
0
LINE
8
BLACK
6
CONTINUOUS
10
161.728
20
-65.5775
11
161.763
21
-65.646
0
LINE
8
BLACK
6
CONTINUOUS
10
161.763
20
-65.646
11
161.793
21
-65.6765
0
LINE
8
BLACK
6
CONTINUOUS
10
161.793
20
-65.6765
11
161.862
21
-65.7107
0
LINE
8
BLACK
6
CONTINUOUS
10
161.862
20
-65.7107
11
162.064
21
-65.7107
0
LINE
8
BLACK
6
CONTINUOUS
10
162.064
20
-65.7107
11
162.133
21
-65.6765
0
LINE
8
BLACK
6
CONTINUOUS
10
162.133
20
-65.6765
11
162.163
21
-65.646
0
LINE
8
BLACK
6
CONTINUOUS
10
162.163
20
-65.646
11
162.197
21
-65.5775
0
LINE
8
BLACK
6
CONTINUOUS
10
162.197
20
-65.5775
11
162.197
21
-65.3748
0
LINE
8
BLACK
6
CONTINUOUS
10
162.197
20
-65.3748
11
162.163
21
-65.3063
0
LINE
8
BLACK
6
CONTINUOUS
10
162.163
20
-65.3063
11
162.124
21
-65.2673
0
LINE
8
BLACK
6
CONTINUOUS
10
162.124
20
-65.2673
11
162.109
21
-65.246
0
LINE
8
BLACK
6
CONTINUOUS
10
162.109
20
-65.246
11
162.105
21
-65.1949
0
LINE
8
BLACK
6
CONTINUOUS
10
162.105
20
-65.1949
11
162.134
21
-65.1528
0
LINE
8
BLACK
6
CONTINUOUS
10
162.134
20
-65.1528
11
162.184
21
-65.1396
0
LINE
8
BLACK
6
CONTINUOUS
10
162.184
20
-65.1396
11
162.23
21
-65.1613
0
LINE
8
BLACK
6
CONTINUOUS
10
157.603
20
-65.154
11
157.631
21
-65.1969
0
LINE
8
BLACK
6
CONTINUOUS
10
157.631
20
-65.1969
11
157.625
21
-65.2478
0
LINE
8
BLACK
6
CONTINUOUS
10
157.625
20
-65.2478
11
157.578
21
-65.3431
0
LINE
8
BLACK
6
CONTINUOUS
10
157.578
20
-65.3431
11
157.564
21
-65.3611
0
LINE
8
BLACK
6
CONTINUOUS
10
157.564
20
-65.3611
11
157.564
21
-65.3626
0
LINE
8
BLACK
6
CONTINUOUS
10
157.564
20
-65.3626
11
157.501
21
-65.425
0
LINE
8
BLACK
6
CONTINUOUS
10
157.501
20
-65.425
11
158.197
21
-65.425
0
LINE
8
BLACK
6
CONTINUOUS
10
158.197
20
-65.425
11
158.197
21
-65.2143
0
LINE
8
BLACK
6
CONTINUOUS
10
158.197
20
-65.2143
11
158.202
21
-65.1886
0
LINE
8
BLACK
6
CONTINUOUS
10
158.202
20
-65.1886
11
158.235
21
-65.1493
0
LINE
8
BLACK
6
CONTINUOUS
10
158.235
20
-65.1493
11
158.285
21
-65.1404
0
LINE
8
BLACK
6
CONTINUOUS
10
158.285
20
-65.1404
11
158.33
21
-65.1661
0
LINE
8
BLACK
6
CONTINUOUS
10
158.33
20
-65.1661
11
158.347
21
-65.2143
0
LINE
8
BLACK
6
CONTINUOUS
10
158.347
20
-65.2143
11
158.347
21
-65.7857
0
LINE
8
BLACK
6
CONTINUOUS
10
158.347
20
-65.7857
11
158.343
21
-65.8114
0
LINE
8
BLACK
6
CONTINUOUS
10
158.343
20
-65.8114
11
158.31
21
-65.8507
0
LINE
8
BLACK
6
CONTINUOUS
10
158.31
20
-65.8507
11
158.259
21
-65.8596
0
LINE
8
BLACK
6
CONTINUOUS
10
158.259
20
-65.8596
11
158.215
21
-65.8339
0
LINE
8
BLACK
6
CONTINUOUS
10
158.215
20
-65.8339
11
158.197
21
-65.7857
0
LINE
8
BLACK
6
CONTINUOUS
10
158.197
20
-65.7857
11
158.197
21
-65.575
0
LINE
8
BLACK
6
CONTINUOUS
10
158.197
20
-65.575
11
157.272
21
-65.575
0
LINE
8
BLACK
6
CONTINUOUS
10
157.272
20
-65.575
11
157.247
21
-65.5705
0
LINE
8
BLACK
6
CONTINUOUS
10
157.247
20
-65.5705
11
157.243
21
-65.5677
0
LINE
8
BLACK
6
CONTINUOUS
10
157.243
20
-65.5677
11
157.239
21
-65.5672
0
LINE
8
BLACK
6
CONTINUOUS
10
157.239
20
-65.5672
11
157.224
21
-65.5515
0
LINE
8
BLACK
6
CONTINUOUS
10
157.224
20
-65.5515
11
157.207
21
-65.5375
0
LINE
8
BLACK
6
CONTINUOUS
10
157.207
20
-65.5375
11
157.207
21
-65.5333
0
LINE
8
BLACK
6
CONTINUOUS
10
157.207
20
-65.5333
11
157.204
21
-65.5301
0
LINE
8
BLACK
6
CONTINUOUS
10
157.204
20
-65.5301
11
157.202
21
-65.5084
0
LINE
8
BLACK
6
CONTINUOUS
10
157.202
20
-65.5084
11
157.199
21
-65.487
0
LINE
8
BLACK
6
CONTINUOUS
10
157.199
20
-65.487
11
157.201
21
-65.4832
0
LINE
8
BLACK
6
CONTINUOUS
10
157.201
20
-65.4832
11
157.2
21
-65.4789
0
LINE
8
BLACK
6
CONTINUOUS
10
157.2
20
-65.4789
11
157.213
21
-65.4614
0
LINE
8
BLACK
6
CONTINUOUS
10
157.213
20
-65.4614
11
157.224
21
-65.4425
0
LINE
8
BLACK
6
CONTINUOUS
10
157.224
20
-65.4425
11
157.228
21
-65.4411
0
LINE
8
BLACK
6
CONTINUOUS
10
157.228
20
-65.4411
11
157.231
21
-65.4376
0
LINE
8
BLACK
6
CONTINUOUS
10
157.231
20
-65.4376
11
157.367
21
-65.3465
0
LINE
8
BLACK
6
CONTINUOUS
10
157.367
20
-65.3465
11
157.449
21
-65.2651
0
LINE
8
BLACK
6
CONTINUOUS
10
157.449
20
-65.2651
11
157.491
21
-65.1807
0
LINE
8
BLACK
6
CONTINUOUS
10
157.491
20
-65.1807
11
157.507
21
-65.1598
0
LINE
8
BLACK
6
CONTINUOUS
10
157.507
20
-65.1598
11
157.554
21
-65.1394
0
LINE
8
BLACK
6
CONTINUOUS
10
157.554
20
-65.1394
11
157.603
21
-65.154
0
LINE
8
BLACK
6
CONTINUOUS
10
155.132
20
-64.2305
11
155.15
21
-64.2729
0
LINE
8
BLACK
6
CONTINUOUS
10
155.15
20
-64.2729
11
155.15
21
-65.7271
0
LINE
8
BLACK
6
CONTINUOUS
10
155.15
20
-65.7271
11
155.132
21
-65.7695
0
LINE
8
BLACK
6
CONTINUOUS
10
155.132
20
-65.7695
11
155.09
21
-65.7871
0
LINE
8
BLACK
6
CONTINUOUS
10
155.09
20
-65.7871
11
155.048
21
-65.7695
0
LINE
8
BLACK
6
CONTINUOUS
10
155.048
20
-65.7695
11
155.03
21
-65.7271
0
LINE
8
BLACK
6
CONTINUOUS
10
155.03
20
-65.7271
11
155.03
21
-64.2729
0
LINE
8
BLACK
6
CONTINUOUS
10
155.03
20
-64.2729
11
155.048
21
-64.2305
0
LINE
8
BLACK
6
CONTINUOUS
10
155.048
20
-64.2305
11
155.09
21
-64.2129
0
LINE
8
BLACK
6
CONTINUOUS
10
155.09
20
-64.2129
11
155.132
21
-64.2305
0
LINE
8
BLACK
6
CONTINUOUS
10
156.952
20
-64.2305
11
156.97
21
-64.2729
0
LINE
8
BLACK
6
CONTINUOUS
10
156.97
20
-64.2729
11
156.97
21
-65.7271
0
LINE
8
BLACK
6
CONTINUOUS
10
156.97
20
-65.7271
11
156.952
21
-65.7695
0
LINE
8
BLACK
6
CONTINUOUS
10
156.952
20
-65.7695
11
156.91
21
-65.7871
0
LINE
8
BLACK
6
CONTINUOUS
10
156.91
20
-65.7871
11
156.868
21
-65.7695
0
LINE
8
BLACK
6
CONTINUOUS
10
156.868
20
-65.7695
11
156.85
21
-65.7271
0
LINE
8
BLACK
6
CONTINUOUS
10
156.85
20
-65.7271
11
156.85
21
-64.2729
0
LINE
8
BLACK
6
CONTINUOUS
10
156.85
20
-64.2729
11
156.868
21
-64.2305
0
LINE
8
BLACK
6
CONTINUOUS
10
156.868
20
-64.2305
11
156.91
21
-64.2129
0
LINE
8
BLACK
6
CONTINUOUS
10
156.91
20
-64.2129
11
156.952
21
-64.2305
0
LINE
8
BLACK
6
CONTINUOUS
10
159.132
20
-64.2305
11
159.15
21
-64.2729
0
LINE
8
BLACK
6
CONTINUOUS
10
159.15
20
-64.2729
11
159.15
21
-65.7271
0
LINE
8
BLACK
6
CONTINUOUS
10
159.15
20
-65.7271
11
159.132
21
-65.7695
0
LINE
8
BLACK
6
CONTINUOUS
10
159.132
20
-65.7695
11
159.09
21
-65.7871
0
LINE
8
BLACK
6
CONTINUOUS
10
159.09
20
-65.7871
11
159.048
21
-65.7695
0
LINE
8
BLACK
6
CONTINUOUS
10
159.048
20
-65.7695
11
159.03
21
-65.7271
0
LINE
8
BLACK
6
CONTINUOUS
10
159.03
20
-65.7271
11
159.03
21
-64.2729
0
LINE
8
BLACK
6
CONTINUOUS
10
159.03
20
-64.2729
11
159.048
21
-64.2305
0
LINE
8
BLACK
6
CONTINUOUS
10
159.048
20
-64.2305
11
159.09
21
-64.2129
0
LINE
8
BLACK
6
CONTINUOUS
10
159.09
20
-64.2129
11
159.132
21
-64.2305
0
LINE
8
BLACK
6
CONTINUOUS
10
160.952
20
-64.2305
11
160.97
21
-64.2729
0
LINE
8
BLACK
6
CONTINUOUS
10
160.97
20
-64.2729
11
160.97
21
-65.7271
0
LINE
8
BLACK
6
CONTINUOUS
10
160.97
20
-65.7271
11
160.952
21
-65.7695
0
LINE
8
BLACK
6
CONTINUOUS
10
160.952
20
-65.7695
11
160.91
21
-65.7871
0
LINE
8
BLACK
6
CONTINUOUS
10
160.91
20
-65.7871
11
160.868
21
-65.7695
0
LINE
8
BLACK
6
CONTINUOUS
10
160.868
20
-65.7695
11
160.85
21
-65.7271
0
LINE
8
BLACK
6
CONTINUOUS
10
160.85
20
-65.7271
11
160.85
21
-64.2729
0
LINE
8
BLACK
6
CONTINUOUS
10
160.85
20
-64.2729
11
160.868
21
-64.2305
0
LINE
8
BLACK
6
CONTINUOUS
10
160.868
20
-64.2305
11
160.91
21
-64.2129
0
LINE
8
BLACK
6
CONTINUOUS
10
160.91
20
-64.2129
11
160.952
21
-64.2305
0
LINE
8
BLACK
6
CONTINUOUS
10
158.298
20
-64.1914
11
158.337
21
-64.2244
0
LINE
8
BLACK
6
CONTINUOUS
10
158.337
20
-64.2244
11
158.346
21
-64.2749
0
LINE
8
BLACK
6
CONTINUOUS
10
158.346
20
-64.2749
11
158.321
21
-64.3194
0
LINE
8
BLACK
6
CONTINUOUS
10
158.321
20
-64.3194
11
158.272
21
-64.3369
0
LINE
8
BLACK
6
CONTINUOUS
10
158.272
20
-64.3369
11
157.871
21
-64.3369
0
LINE
8
BLACK
6
CONTINUOUS
10
157.871
20
-64.3369
11
157.871
21
-64.461
0
LINE
8
BLACK
6
CONTINUOUS
10
157.871
20
-64.461
11
158.315
21
-64.7719
0
LINE
8
BLACK
6
CONTINUOUS
10
158.315
20
-64.7719
11
158.334
21
-64.7903
0
LINE
8
BLACK
6
CONTINUOUS
10
158.334
20
-64.7903
11
158.347
21
-64.8399
0
LINE
8
BLACK
6
CONTINUOUS
10
158.347
20
-64.8399
11
158.325
21
-64.8864
0
LINE
8
BLACK
6
CONTINUOUS
10
158.325
20
-64.8864
11
158.279
21
-64.908
0
LINE
8
BLACK
6
CONTINUOUS
10
158.279
20
-64.908
11
158.229
21
-64.8948
0
LINE
8
BLACK
6
CONTINUOUS
10
158.229
20
-64.8948
11
157.871
21
-64.6439
0
LINE
8
BLACK
6
CONTINUOUS
10
157.871
20
-64.6439
11
157.867
21
-64.6685
0
LINE
8
BLACK
6
CONTINUOUS
10
157.867
20
-64.6685
11
157.864
21
-64.6719
0
LINE
8
BLACK
6
CONTINUOUS
10
157.864
20
-64.6719
11
157.863
21
-64.6764
0
LINE
8
BLACK
6
CONTINUOUS
10
157.863
20
-64.6764
11
157.816
21
-64.7716
0
LINE
8
BLACK
6
CONTINUOUS
10
157.816
20
-64.7716
11
157.802
21
-64.7896
0
LINE
8
BLACK
6
CONTINUOUS
10
157.802
20
-64.7896
11
157.802
21
-64.7911
0
LINE
8
BLACK
6
CONTINUOUS
10
157.802
20
-64.7911
11
157.754
21
-64.8387
0
LINE
8
BLACK
6
CONTINUOUS
10
157.754
20
-64.8387
11
157.736
21
-64.8516
0
LINE
8
BLACK
6
CONTINUOUS
10
157.736
20
-64.8516
11
157.734
21
-64.8528
0
LINE
8
BLACK
6
CONTINUOUS
10
157.734
20
-64.8528
11
157.639
21
-64.9004
0
LINE
8
BLACK
6
CONTINUOUS
10
157.639
20
-64.9004
11
157.614
21
-64.9078
0
LINE
8
BLACK
6
CONTINUOUS
10
157.614
20
-64.9078
11
157.61
21
-64.9068
0
LINE
8
BLACK
6
CONTINUOUS
10
157.61
20
-64.9068
11
157.606
21
-64.9083
0
LINE
8
BLACK
6
CONTINUOUS
10
157.606
20
-64.9083
11
157.463
21
-64.9083
0
LINE
8
BLACK
6
CONTINUOUS
10
157.463
20
-64.9083
11
157.437
21
-64.9038
0
LINE
8
BLACK
6
CONTINUOUS
10
157.437
20
-64.9038
11
157.434
21
-64.9009
0
LINE
8
BLACK
6
CONTINUOUS
10
157.434
20
-64.9009
11
157.429
21
-64.9004
0
LINE
8
BLACK
6
CONTINUOUS
10
157.429
20
-64.9004
11
157.334
21
-64.8528
0
LINE
8
BLACK
6
CONTINUOUS
10
157.334
20
-64.8528
11
157.316
21
-64.8394
0
LINE
8
BLACK
6
CONTINUOUS
10
157.316
20
-64.8394
11
157.315
21
-64.8387
0
LINE
8
BLACK
6
CONTINUOUS
10
157.315
20
-64.8387
11
157.267
21
-64.7911
0
LINE
8
BLACK
6
CONTINUOUS
10
157.267
20
-64.7911
11
157.254
21
-64.7728
0
LINE
8
BLACK
6
CONTINUOUS
10
157.254
20
-64.7728
11
157.253
21
-64.7716
0
LINE
8
BLACK
6
CONTINUOUS
10
157.253
20
-64.7716
11
157.205
21
-64.6764
0
LINE
8
BLACK
6
CONTINUOUS
10
157.205
20
-64.6764
11
157.198
21
-64.6514
0
LINE
8
BLACK
6
CONTINUOUS
10
157.198
20
-64.6514
11
157.199
21
-64.6471
0
LINE
8
BLACK
6
CONTINUOUS
10
157.199
20
-64.6471
11
157.197
21
-64.6429
0
LINE
8
BLACK
6
CONTINUOUS
10
157.197
20
-64.6429
11
157.197
21
-64.2619
0
LINE
8
BLACK
6
CONTINUOUS
10
157.197
20
-64.2619
11
157.199
21
-64.2522
0
LINE
8
BLACK
6
CONTINUOUS
10
157.199
20
-64.2522
11
157.199
21
-64.2489
0
LINE
8
BLACK
6
CONTINUOUS
10
157.199
20
-64.2489
11
157.2
21
-64.246
0
LINE
8
BLACK
6
CONTINUOUS
10
157.2
20
-64.246
11
157.202
21
-64.2363
0
LINE
8
BLACK
6
CONTINUOUS
10
157.202
20
-64.2363
11
157.214
21
-64.2213
0
LINE
8
BLACK
6
CONTINUOUS
10
157.214
20
-64.2213
11
157.224
21
-64.2045
0
LINE
8
BLACK
6
CONTINUOUS
10
157.224
20
-64.2045
11
157.231
21
-64.2021
0
LINE
8
BLACK
6
CONTINUOUS
10
157.231
20
-64.2021
11
157.235
21
-64.197
0
LINE
8
BLACK
6
CONTINUOUS
10
157.235
20
-64.197
11
157.254
21
-64.1936
0
LINE
8
BLACK
6
CONTINUOUS
10
157.254
20
-64.1936
11
157.272
21
-64.1869
0
LINE
8
BLACK
6
CONTINUOUS
10
157.272
20
-64.1869
11
158.272
21
-64.1869
0
LINE
8
BLACK
6
CONTINUOUS
10
158.272
20
-64.1869
11
158.298
21
-64.1914
0
LINE
8
BLACK
6
CONTINUOUS
10
157.347
20
-64.3369
11
157.347
21
-64.6252
0
LINE
8
BLACK
6
CONTINUOUS
10
157.347
20
-64.6252
11
157.382
21
-64.6937
0
LINE
8
BLACK
6
CONTINUOUS
10
157.382
20
-64.6937
11
157.412
21
-64.7241
0
LINE
8
BLACK
6
CONTINUOUS
10
157.412
20
-64.7241
11
157.481
21
-64.7583
0
LINE
8
BLACK
6
CONTINUOUS
10
157.481
20
-64.7583
11
157.588
21
-64.7583
0
LINE
8
BLACK
6
CONTINUOUS
10
157.588
20
-64.7583
11
157.657
21
-64.7241
0
LINE
8
BLACK
6
CONTINUOUS
10
157.657
20
-64.7241
11
157.687
21
-64.6937
0
LINE
8
BLACK
6
CONTINUOUS
10
157.687
20
-64.6937
11
157.721
21
-64.6252
0
LINE
8
BLACK
6
CONTINUOUS
10
157.721
20
-64.6252
11
157.721
21
-64.3369
0
LINE
8
BLACK
6
CONTINUOUS
10
157.721
20
-64.3369
11
157.347
21
-64.3369
0
LINE
8
BLACK
6
CONTINUOUS
10
162.298
20
-64.1914
11
162.337
21
-64.2244
0
LINE
8
BLACK
6
CONTINUOUS
10
162.337
20
-64.2244
11
162.346
21
-64.2749
0
LINE
8
BLACK
6
CONTINUOUS
10
162.346
20
-64.2749
11
162.321
21
-64.3194
0
LINE
8
BLACK
6
CONTINUOUS
10
162.321
20
-64.3194
11
162.272
21
-64.3369
0
LINE
8
BLACK
6
CONTINUOUS
10
162.272
20
-64.3369
11
161.871
21
-64.3369
0
LINE
8
BLACK
6
CONTINUOUS
10
161.871
20
-64.3369
11
161.871
21
-64.461
0
LINE
8
BLACK
6
CONTINUOUS
10
161.871
20
-64.461
11
162.315
21
-64.7719
0
LINE
8
BLACK
6
CONTINUOUS
10
162.315
20
-64.7719
11
162.334
21
-64.7903
0
LINE
8
BLACK
6
CONTINUOUS
10
162.334
20
-64.7903
11
162.347
21
-64.8399
0
LINE
8
BLACK
6
CONTINUOUS
10
162.347
20
-64.8399
11
162.325
21
-64.8864
0
LINE
8
BLACK
6
CONTINUOUS
10
162.325
20
-64.8864
11
162.279
21
-64.908
0
LINE
8
BLACK
6
CONTINUOUS
10
162.279
20
-64.908
11
162.229
21
-64.8948
0
LINE
8
BLACK
6
CONTINUOUS
10
162.229
20
-64.8948
11
161.871
21
-64.6439
0
LINE
8
BLACK
6
CONTINUOUS
10
161.871
20
-64.6439
11
161.867
21
-64.6685
0
LINE
8
BLACK
6
CONTINUOUS
10
161.867
20
-64.6685
11
161.864
21
-64.6719
0
LINE
8
BLACK
6
CONTINUOUS
10
161.864
20
-64.6719
11
161.863
21
-64.6764
0
LINE
8
BLACK
6
CONTINUOUS
10
161.863
20
-64.6764
11
161.816
21
-64.7716
0
LINE
8
BLACK
6
CONTINUOUS
10
161.816
20
-64.7716
11
161.802
21
-64.7896
0
LINE
8
BLACK
6
CONTINUOUS
10
161.802
20
-64.7896
11
161.802
21
-64.7911
0
LINE
8
BLACK
6
CONTINUOUS
10
161.802
20
-64.7911
11
161.754
21
-64.8387
0
LINE
8
BLACK
6
CONTINUOUS
10
161.754
20
-64.8387
11
161.736
21
-64.8516
0
LINE
8
BLACK
6
CONTINUOUS
10
161.736
20
-64.8516
11
161.734
21
-64.8528
0
LINE
8
BLACK
6
CONTINUOUS
10
161.734
20
-64.8528
11
161.639
21
-64.9004
0
LINE
8
BLACK
6
CONTINUOUS
10
161.639
20
-64.9004
11
161.614
21
-64.9078
0
LINE
8
BLACK
6
CONTINUOUS
10
161.614
20
-64.9078
11
161.61
21
-64.9068
0
LINE
8
BLACK
6
CONTINUOUS
10
161.61
20
-64.9068
11
161.606
21
-64.9083
0
LINE
8
BLACK
6
CONTINUOUS
10
161.606
20
-64.9083
11
161.463
21
-64.9083
0
LINE
8
BLACK
6
CONTINUOUS
10
161.463
20
-64.9083
11
161.437
21
-64.9038
0
LINE
8
BLACK
6
CONTINUOUS
10
161.437
20
-64.9038
11
161.434
21
-64.9009
0
LINE
8
BLACK
6
CONTINUOUS
10
161.434
20
-64.9009
11
161.429
21
-64.9004
0
LINE
8
BLACK
6
CONTINUOUS
10
161.429
20
-64.9004
11
161.334
21
-64.8528
0
LINE
8
BLACK
6
CONTINUOUS
10
161.334
20
-64.8528
11
161.316
21
-64.8394
0
LINE
8
BLACK
6
CONTINUOUS
10
161.316
20
-64.8394
11
161.315
21
-64.8387
0
LINE
8
BLACK
6
CONTINUOUS
10
161.315
20
-64.8387
11
161.267
21
-64.7911
0
LINE
8
BLACK
6
CONTINUOUS
10
161.267
20
-64.7911
11
161.254
21
-64.7728
0
LINE
8
BLACK
6
CONTINUOUS
10
161.254
20
-64.7728
11
161.253
21
-64.7716
0
LINE
8
BLACK
6
CONTINUOUS
10
161.253
20
-64.7716
11
161.205
21
-64.6764
0
LINE
8
BLACK
6
CONTINUOUS
10
161.205
20
-64.6764
11
161.198
21
-64.6514
0
LINE
8
BLACK
6
CONTINUOUS
10
161.198
20
-64.6514
11
161.199
21
-64.6471
0
LINE
8
BLACK
6
CONTINUOUS
10
161.199
20
-64.6471
11
161.197
21
-64.6429
0
LINE
8
BLACK
6
CONTINUOUS
10
161.197
20
-64.6429
11
161.197
21
-64.2619
0
LINE
8
BLACK
6
CONTINUOUS
10
161.197
20
-64.2619
11
161.199
21
-64.2522
0
LINE
8
BLACK
6
CONTINUOUS
10
161.199
20
-64.2522
11
161.199
21
-64.2489
0
LINE
8
BLACK
6
CONTINUOUS
10
161.199
20
-64.2489
11
161.2
21
-64.246
0
LINE
8
BLACK
6
CONTINUOUS
10
161.2
20
-64.246
11
161.202
21
-64.2363
0
LINE
8
BLACK
6
CONTINUOUS
10
161.202
20
-64.2363
11
161.214
21
-64.2213
0
LINE
8
BLACK
6
CONTINUOUS
10
161.214
20
-64.2213
11
161.224
21
-64.2045
0
LINE
8
BLACK
6
CONTINUOUS
10
161.224
20
-64.2045
11
161.231
21
-64.2021
0
LINE
8
BLACK
6
CONTINUOUS
10
161.231
20
-64.2021
11
161.235
21
-64.197
0
LINE
8
BLACK
6
CONTINUOUS
10
161.235
20
-64.197
11
161.254
21
-64.1936
0
LINE
8
BLACK
6
CONTINUOUS
10
161.254
20
-64.1936
11
161.272
21
-64.1869
0
LINE
8
BLACK
6
CONTINUOUS
10
161.272
20
-64.1869
11
162.272
21
-64.1869
0
LINE
8
BLACK
6
CONTINUOUS
10
162.272
20
-64.1869
11
162.298
21
-64.1914
0
LINE
8
BLACK
6
CONTINUOUS
10
161.347
20
-64.3369
11
161.347
21
-64.6252
0
LINE
8
BLACK
6
CONTINUOUS
10
161.347
20
-64.6252
11
161.382
21
-64.6937
0
LINE
8
BLACK
6
CONTINUOUS
10
161.382
20
-64.6937
11
161.412
21
-64.7241
0
LINE
8
BLACK
6
CONTINUOUS
10
161.412
20
-64.7241
11
161.481
21
-64.7583
0
LINE
8
BLACK
6
CONTINUOUS
10
161.481
20
-64.7583
11
161.588
21
-64.7583
0
LINE
8
BLACK
6
CONTINUOUS
10
161.588
20
-64.7583
11
161.657
21
-64.7241
0
LINE
8
BLACK
6
CONTINUOUS
10
161.657
20
-64.7241
11
161.687
21
-64.6937
0
LINE
8
BLACK
6
CONTINUOUS
10
161.687
20
-64.6937
11
161.721
21
-64.6252
0
LINE
8
BLACK
6
CONTINUOUS
10
161.721
20
-64.6252
11
161.721
21
-64.3369
0
LINE
8
BLACK
6
CONTINUOUS
10
161.721
20
-64.3369
11
161.347
21
-64.3369
0
LINE
8
BLACK
6
CONTINUOUS
10
141.819
20
-62.4042
11
141.837
21
-62.4524
0
LINE
8
BLACK
6
CONTINUOUS
10
141.837
20
-62.4524
11
141.837
21
-63.2619
0
LINE
8
BLACK
6
CONTINUOUS
10
141.837
20
-63.2619
11
141.832
21
-63.2876
0
LINE
8
BLACK
6
CONTINUOUS
10
141.832
20
-63.2876
11
141.829
21
-63.291
0
LINE
8
BLACK
6
CONTINUOUS
10
141.829
20
-63.291
11
141.829
21
-63.2954
0
LINE
8
BLACK
6
CONTINUOUS
10
141.829
20
-63.2954
11
141.781
21
-63.3907
0
LINE
8
BLACK
6
CONTINUOUS
10
141.781
20
-63.3907
11
141.768
21
-63.4087
0
LINE
8
BLACK
6
CONTINUOUS
10
141.768
20
-63.4087
11
141.767
21
-63.4102
0
LINE
8
BLACK
6
CONTINUOUS
10
141.767
20
-63.4102
11
141.72
21
-63.4578
0
LINE
8
BLACK
6
CONTINUOUS
10
141.72
20
-63.4578
11
141.701
21
-63.4707
0
LINE
8
BLACK
6
CONTINUOUS
10
141.701
20
-63.4707
11
141.7
21
-63.4718
0
LINE
8
BLACK
6
CONTINUOUS
10
141.7
20
-63.4718
11
141.605
21
-63.5195
0
LINE
8
BLACK
6
CONTINUOUS
10
141.605
20
-63.5195
11
141.58
21
-63.5269
0
LINE
8
BLACK
6
CONTINUOUS
10
141.58
20
-63.5269
11
141.576
21
-63.5258
0
LINE
8
BLACK
6
CONTINUOUS
10
141.576
20
-63.5258
11
141.571
21
-63.5274
0
LINE
8
BLACK
6
CONTINUOUS
10
141.571
20
-63.5274
11
141.381
21
-63.5274
0
LINE
8
BLACK
6
CONTINUOUS
10
141.381
20
-63.5274
11
141.355
21
-63.5229
0
LINE
8
BLACK
6
CONTINUOUS
10
141.355
20
-63.5229
11
141.352
21
-63.52
0
LINE
8
BLACK
6
CONTINUOUS
10
141.352
20
-63.52
11
141.347
21
-63.5195
0
LINE
8
BLACK
6
CONTINUOUS
10
141.347
20
-63.5195
11
141.252
21
-63.4718
0
LINE
8
BLACK
6
CONTINUOUS
10
141.252
20
-63.4718
11
141.234
21
-63.4585
0
LINE
8
BLACK
6
CONTINUOUS
10
141.234
20
-63.4585
11
141.233
21
-63.4578
0
LINE
8
BLACK
6
CONTINUOUS
10
141.233
20
-63.4578
11
141.185
21
-63.4102
0
LINE
8
BLACK
6
CONTINUOUS
10
141.185
20
-63.4102
11
141.172
21
-63.3918
0
LINE
8
BLACK
6
CONTINUOUS
10
141.172
20
-63.3918
11
141.171
21
-63.3907
0
LINE
8
BLACK
6
CONTINUOUS
10
141.171
20
-63.3907
11
141.123
21
-63.2954
0
LINE
8
BLACK
6
CONTINUOUS
10
141.123
20
-63.2954
11
141.116
21
-63.2705
0
LINE
8
BLACK
6
CONTINUOUS
10
141.116
20
-63.2705
11
141.117
21
-63.2661
0
LINE
8
BLACK
6
CONTINUOUS
10
141.117
20
-63.2661
11
141.115
21
-63.2619
0
LINE
8
BLACK
6
CONTINUOUS
10
141.115
20
-63.2619
11
141.115
21
-62.4524
0
LINE
8
BLACK
6
CONTINUOUS
10
141.115
20
-62.4524
11
141.12
21
-62.4267
0
LINE
8
BLACK
6
CONTINUOUS
10
141.12
20
-62.4267
11
141.153
21
-62.3874
0
LINE
8
BLACK
6
CONTINUOUS
10
141.153
20
-62.3874
11
141.203
21
-62.3785
0
LINE
8
BLACK
6
CONTINUOUS
10
141.203
20
-62.3785
11
141.248
21
-62.4042
0
LINE
8
BLACK
6
CONTINUOUS
10
141.248
20
-62.4042
11
141.265
21
-62.4524
0
LINE
8
BLACK
6
CONTINUOUS
10
141.265
20
-62.4524
11
141.265
21
-63.2442
0
LINE
8
BLACK
6
CONTINUOUS
10
141.265
20
-63.2442
11
141.3
21
-63.3127
0
LINE
8
BLACK
6
CONTINUOUS
10
141.3
20
-63.3127
11
141.33
21
-63.3431
0
LINE
8
BLACK
6
CONTINUOUS
10
141.33
20
-63.3431
11
141.399
21
-63.3774
0
LINE
8
BLACK
6
CONTINUOUS
10
141.399
20
-63.3774
11
141.554
21
-63.3774
0
LINE
8
BLACK
6
CONTINUOUS
10
141.554
20
-63.3774
11
141.622
21
-63.3431
0
LINE
8
BLACK
6
CONTINUOUS
10
141.622
20
-63.3431
11
141.653
21
-63.3127
0
LINE
8
BLACK
6
CONTINUOUS
10
141.653
20
-63.3127
11
141.687
21
-63.2442
0
LINE
8
BLACK
6
CONTINUOUS
10
141.687
20
-63.2442
11
141.687
21
-62.4524
0
LINE
8
BLACK
6
CONTINUOUS
10
141.687
20
-62.4524
11
141.691
21
-62.4267
0
LINE
8
BLACK
6
CONTINUOUS
10
141.691
20
-62.4267
11
141.724
21
-62.3874
0
LINE
8
BLACK
6
CONTINUOUS
10
141.724
20
-62.3874
11
141.775
21
-62.3785
0
LINE
8
BLACK
6
CONTINUOUS
10
141.775
20
-62.3785
11
141.819
21
-62.4042
0
LINE
8
BLACK
6
CONTINUOUS
10
140.645
20
-62.3819
11
140.648
21
-62.3848
0
LINE
8
BLACK
6
CONTINUOUS
10
140.648
20
-62.3848
11
140.653
21
-62.3853
0
LINE
8
BLACK
6
CONTINUOUS
10
140.653
20
-62.3853
11
140.748
21
-62.4329
0
LINE
8
BLACK
6
CONTINUOUS
10
140.748
20
-62.4329
11
140.766
21
-62.4463
0
LINE
8
BLACK
6
CONTINUOUS
10
140.766
20
-62.4463
11
140.767
21
-62.447
0
LINE
8
BLACK
6
CONTINUOUS
10
140.767
20
-62.447
11
140.815
21
-62.4946
0
LINE
8
BLACK
6
CONTINUOUS
10
140.815
20
-62.4946
11
140.83
21
-62.5159
0
LINE
8
BLACK
6
CONTINUOUS
10
140.83
20
-62.5159
11
140.834
21
-62.567
0
LINE
8
BLACK
6
CONTINUOUS
10
140.834
20
-62.567
11
140.805
21
-62.6091
0
LINE
8
BLACK
6
CONTINUOUS
10
140.805
20
-62.6091
11
140.755
21
-62.6223
0
LINE
8
BLACK
6
CONTINUOUS
10
140.755
20
-62.6223
11
140.709
21
-62.6007
0
LINE
8
BLACK
6
CONTINUOUS
10
140.709
20
-62.6007
11
140.67
21
-62.5616
0
LINE
8
BLACK
6
CONTINUOUS
10
140.67
20
-62.5616
11
140.601
21
-62.5274
0
LINE
8
BLACK
6
CONTINUOUS
10
140.601
20
-62.5274
11
140.399
21
-62.5274
0
LINE
8
BLACK
6
CONTINUOUS
10
140.399
20
-62.5274
11
140.33
21
-62.5616
0
LINE
8
BLACK
6
CONTINUOUS
10
140.33
20
-62.5616
11
140.3
21
-62.592
0
LINE
8
BLACK
6
CONTINUOUS
10
140.3
20
-62.592
11
140.265
21
-62.6606
0
LINE
8
BLACK
6
CONTINUOUS
10
140.265
20
-62.6606
11
140.265
21
-62.7259
0
LINE
8
BLACK
6
CONTINUOUS
10
140.265
20
-62.7259
11
140.304
21
-62.8404
0
LINE
8
BLACK
6
CONTINUOUS
10
140.304
20
-62.8404
11
140.863
21
-63.3993
0
LINE
8
BLACK
6
CONTINUOUS
10
140.863
20
-63.3993
11
140.872
21
-63.4128
0
LINE
8
BLACK
6
CONTINUOUS
10
140.872
20
-63.4128
11
140.874
21
-63.4149
0
LINE
8
BLACK
6
CONTINUOUS
10
140.874
20
-63.4149
11
140.875
21
-63.4169
0
LINE
8
BLACK
6
CONTINUOUS
10
140.875
20
-63.4169
11
140.877
21
-63.4207
0
LINE
8
BLACK
6
CONTINUOUS
10
140.877
20
-63.4207
11
140.879
21
-63.4432
0
LINE
8
BLACK
6
CONTINUOUS
10
140.879
20
-63.4432
11
140.883
21
-63.4654
0
LINE
8
BLACK
6
CONTINUOUS
10
140.883
20
-63.4654
11
140.882
21
-63.4684
0
LINE
8
BLACK
6
CONTINUOUS
10
140.882
20
-63.4684
11
140.882
21
-63.4718
0
LINE
8
BLACK
6
CONTINUOUS
10
140.882
20
-63.4718
11
140.869
21
-63.4903
0
LINE
8
BLACK
6
CONTINUOUS
10
140.869
20
-63.4903
11
140.858
21
-63.5098
0
LINE
8
BLACK
6
CONTINUOUS
10
140.858
20
-63.5098
11
140.855
21
-63.511
0
LINE
8
BLACK
6
CONTINUOUS
10
140.855
20
-63.511
11
140.853
21
-63.5138
0
LINE
8
BLACK
6
CONTINUOUS
10
140.853
20
-63.5138
11
140.831
21
-63.5197
0
LINE
8
BLACK
6
CONTINUOUS
10
140.831
20
-63.5197
11
140.81
21
-63.5274
0
LINE
8
BLACK
6
CONTINUOUS
10
140.81
20
-63.5274
11
140.19
21
-63.5274
0
LINE
8
BLACK
6
CONTINUOUS
10
140.19
20
-63.5274
11
140.165
21
-63.5229
0
LINE
8
BLACK
6
CONTINUOUS
10
140.165
20
-63.5229
11
140.126
21
-63.4899
0
LINE
8
BLACK
6
CONTINUOUS
10
140.126
20
-63.4899
11
140.117
21
-63.4394
0
LINE
8
BLACK
6
CONTINUOUS
10
140.117
20
-63.4394
11
140.142
21
-63.3949
0
LINE
8
BLACK
6
CONTINUOUS
10
140.142
20
-63.3949
11
140.19
21
-63.3774
0
LINE
8
BLACK
6
CONTINUOUS
10
140.19
20
-63.3774
11
140.628
21
-63.3774
0
LINE
8
BLACK
6
CONTINUOUS
10
140.628
20
-63.3774
11
140.185
21
-62.934
0
LINE
8
BLACK
6
CONTINUOUS
10
140.185
20
-62.934
11
140.17
21
-62.9126
0
LINE
8
BLACK
6
CONTINUOUS
10
140.17
20
-62.9126
11
140.17
21
-62.9082
0
LINE
8
BLACK
6
CONTINUOUS
10
140.17
20
-62.9082
11
140.167
21
-62.9047
0
LINE
8
BLACK
6
CONTINUOUS
10
140.167
20
-62.9047
11
140.119
21
-62.7618
0
LINE
8
BLACK
6
CONTINUOUS
10
140.119
20
-62.7618
11
140.116
21
-62.7396
0
LINE
8
BLACK
6
CONTINUOUS
10
140.116
20
-62.7396
11
140.115
21
-62.7381
0
LINE
8
BLACK
6
CONTINUOUS
10
140.115
20
-62.7381
11
140.115
21
-62.6429
0
LINE
8
BLACK
6
CONTINUOUS
10
140.115
20
-62.6429
11
140.12
21
-62.6172
0
LINE
8
BLACK
6
CONTINUOUS
10
140.12
20
-62.6172
11
140.123
21
-62.6138
0
LINE
8
BLACK
6
CONTINUOUS
10
140.123
20
-62.6138
11
140.123
21
-62.6093
0
LINE
8
BLACK
6
CONTINUOUS
10
140.123
20
-62.6093
11
140.171
21
-62.5141
0
LINE
8
BLACK
6
CONTINUOUS
10
140.171
20
-62.5141
11
140.184
21
-62.4961
0
LINE
8
BLACK
6
CONTINUOUS
10
140.184
20
-62.4961
11
140.185
21
-62.4946
0
LINE
8
BLACK
6
CONTINUOUS
10
140.185
20
-62.4946
11
140.233
21
-62.447
0
LINE
8
BLACK
6
CONTINUOUS
10
140.233
20
-62.447
11
140.251
21
-62.4341
0
LINE
8
BLACK
6
CONTINUOUS
10
140.251
20
-62.4341
11
140.252
21
-62.4329
0
LINE
8
BLACK
6
CONTINUOUS
10
140.252
20
-62.4329
11
140.347
21
-62.3853
0
LINE
8
BLACK
6
CONTINUOUS
10
140.347
20
-62.3853
11
140.372
21
-62.3779
0
LINE
8
BLACK
6
CONTINUOUS
10
140.372
20
-62.3779
11
140.377
21
-62.3789
0
LINE
8
BLACK
6
CONTINUOUS
10
140.377
20
-62.3789
11
140.381
21
-62.3774
0
LINE
8
BLACK
6
CONTINUOUS
10
140.381
20
-62.3774
11
140.619
21
-62.3774
0
LINE
8
BLACK
6
CONTINUOUS
10
140.619
20
-62.3774
11
140.645
21
-62.3819
0
LINE
8
BLACK
6
CONTINUOUS
10
149.717
20
-53.8376
11
149.735
21
-53.88
0
LINE
8
BLACK
6
CONTINUOUS
10
149.735
20
-53.88
11
149.735
21
-61.44
0
LINE
8
BLACK
6
CONTINUOUS
10
149.735
20
-61.44
11
150.285
21
-61.44
0
LINE
8
BLACK
6
CONTINUOUS
10
150.285
20
-61.44
11
150.327
21
-61.4576
0
LINE
8
BLACK
6
CONTINUOUS
10
150.327
20
-61.4576
11
150.345
21
-61.5
0
LINE
8
BLACK
6
CONTINUOUS
10
150.345
20
-61.5
11
150.327
21
-61.5424
0
LINE
8
BLACK
6
CONTINUOUS
10
150.327
20
-61.5424
11
150.285
21
-61.56
0
LINE
8
BLACK
6
CONTINUOUS
10
150.285
20
-61.56
11
149.675
21
-61.56
0
LINE
8
BLACK
6
CONTINUOUS
10
149.675
20
-61.56
11
149.633
21
-61.5424
0
LINE
8
BLACK
6
CONTINUOUS
10
149.633
20
-61.5424
11
149.615
21
-61.5
0
LINE
8
BLACK
6
CONTINUOUS
10
149.615
20
-61.5
11
149.615
21
-53.94
0
LINE
8
BLACK
6
CONTINUOUS
10
149.615
20
-53.94
11
133.495
21
-53.94
0
LINE
8
BLACK
6
CONTINUOUS
10
133.495
20
-53.94
11
133.495
21
-61.5
0
LINE
8
BLACK
6
CONTINUOUS
10
133.495
20
-61.5
11
133.477
21
-61.5424
0
LINE
8
BLACK
6
CONTINUOUS
10
133.477
20
-61.5424
11
133.435
21
-61.56
0
LINE
8
BLACK
6
CONTINUOUS
10
133.435
20
-61.56
11
133.393
21
-61.5424
0
LINE
8
BLACK
6
CONTINUOUS
10
133.393
20
-61.5424
11
133.375
21
-61.5
0
LINE
8
BLACK
6
CONTINUOUS
10
133.375
20
-61.5
11
133.375
21
-53.88
0
LINE
8
BLACK
6
CONTINUOUS
10
133.375
20
-53.88
11
133.393
21
-53.8376
0
LINE
8
BLACK
6
CONTINUOUS
10
133.393
20
-53.8376
11
133.435
21
-53.82
0
LINE
8
BLACK
6
CONTINUOUS
10
133.435
20
-53.82
11
149.675
21
-53.82
0
LINE
8
BLACK
6
CONTINUOUS
10
149.675
20
-53.82
11
149.717
21
-53.8376
0
LINE
8
BLACK
6
CONTINUOUS
10
154.108
20
-59.1024
11
154.09
21
-59.06
0
LINE
8
BLACK
6
CONTINUOUS
10
154.09
20
-59.06
11
154.09
21
-52.94
0
LINE
8
BLACK
6
CONTINUOUS
10
154.09
20
-52.94
11
154.108
21
-52.8976
0
LINE
8
BLACK
6
CONTINUOUS
10
154.108
20
-52.8976
11
154.15
21
-52.88
0
LINE
8
BLACK
6
CONTINUOUS
10
154.15
20
-52.88
11
157.85
21
-52.88
0
LINE
8
BLACK
6
CONTINUOUS
10
157.85
20
-52.88
11
157.892
21
-52.8976
0
LINE
8
BLACK
6
CONTINUOUS
10
157.892
20
-52.8976
11
157.91
21
-52.94
0
LINE
8
BLACK
6
CONTINUOUS
10
157.91
20
-52.94
11
157.91
21
-59.06
0
LINE
8
BLACK
6
CONTINUOUS
10
157.91
20
-59.06
11
157.892
21
-59.1024
0
LINE
8
BLACK
6
CONTINUOUS
10
157.892
20
-59.1024
11
157.85
21
-59.12
0
LINE
8
BLACK
6
CONTINUOUS
10
157.85
20
-59.12
11
154.15
21
-59.12
0
LINE
8
BLACK
6
CONTINUOUS
10
154.15
20
-59.12
11
154.108
21
-59.1024
0
LINE
8
BLACK
6
CONTINUOUS
10
154.21
20
-53
11
154.21
21
-59
0
LINE
8
BLACK
6
CONTINUOUS
10
154.21
20
-59
11
157.79
21
-59
0
LINE
8
BLACK
6
CONTINUOUS
10
157.79
20
-59
11
157.79
21
-53
0
LINE
8
BLACK
6
CONTINUOUS
10
157.79
20
-53
11
154.21
21
-53
0
LINE
8
BLACK
6
CONTINUOUS
10
153.868
20
-56.6421
11
153.872
21
-56.6418
0
LINE
8
BLACK
6
CONTINUOUS
10
153.872
20
-56.6418
11
153.89
21
-56.6548
0
LINE
8
BLACK
6
CONTINUOUS
10
153.89
20
-56.6548
11
153.91
21
-56.6661
0
LINE
8
BLACK
6
CONTINUOUS
10
153.91
20
-56.6661
11
153.911
21
-56.6693
0
LINE
8
BLACK
6
CONTINUOUS
10
153.911
20
-56.6693
11
153.914
21
-56.6713
0
LINE
8
BLACK
6
CONTINUOUS
10
153.914
20
-56.6713
11
153.92
21
-56.6931
0
LINE
8
BLACK
6
CONTINUOUS
10
153.92
20
-56.6931
11
153.927
21
-56.7143
0
LINE
8
BLACK
6
CONTINUOUS
10
153.927
20
-56.7143
11
153.927
21
-57.3333
0
LINE
8
BLACK
6
CONTINUOUS
10
153.927
20
-57.3333
11
153.923
21
-57.359
0
LINE
8
BLACK
6
CONTINUOUS
10
153.923
20
-57.359
11
153.89
21
-57.3983
0
LINE
8
BLACK
6
CONTINUOUS
10
153.89
20
-57.3983
11
153.839
21
-57.4072
0
LINE
8
BLACK
6
CONTINUOUS
10
153.839
20
-57.4072
11
153.795
21
-57.3815
0
LINE
8
BLACK
6
CONTINUOUS
10
153.795
20
-57.3815
11
153.777
21
-57.3333
0
LINE
8
BLACK
6
CONTINUOUS
10
153.777
20
-57.3333
11
153.777
21
-56.8954
0
LINE
8
BLACK
6
CONTINUOUS
10
153.777
20
-56.8954
11
153.334
21
-57.3387
0
LINE
8
BLACK
6
CONTINUOUS
10
153.334
20
-57.3387
11
153.313
21
-57.3537
0
LINE
8
BLACK
6
CONTINUOUS
10
153.313
20
-57.3537
11
153.308
21
-57.3541
0
LINE
8
BLACK
6
CONTINUOUS
10
153.308
20
-57.3541
11
153.305
21
-57.3569
0
LINE
8
BLACK
6
CONTINUOUS
10
153.305
20
-57.3569
11
153.162
21
-57.4045
0
LINE
8
BLACK
6
CONTINUOUS
10
153.162
20
-57.4045
11
153.14
21
-57.4078
0
LINE
8
BLACK
6
CONTINUOUS
10
153.14
20
-57.4078
11
153.138
21
-57.4083
0
LINE
8
BLACK
6
CONTINUOUS
10
153.138
20
-57.4083
11
153.043
21
-57.4083
0
LINE
8
BLACK
6
CONTINUOUS
10
153.043
20
-57.4083
11
153.017
21
-57.4038
0
LINE
8
BLACK
6
CONTINUOUS
10
153.017
20
-57.4038
11
153.014
21
-57.4009
0
LINE
8
BLACK
6
CONTINUOUS
10
153.014
20
-57.4009
11
153.009
21
-57.4004
0
LINE
8
BLACK
6
CONTINUOUS
10
153.009
20
-57.4004
11
152.914
21
-57.3528
0
LINE
8
BLACK
6
CONTINUOUS
10
152.914
20
-57.3528
11
152.896
21
-57.3394
0
LINE
8
BLACK
6
CONTINUOUS
10
152.896
20
-57.3394
11
152.895
21
-57.3387
0
LINE
8
BLACK
6
CONTINUOUS
10
152.895
20
-57.3387
11
152.847
21
-57.2911
0
LINE
8
BLACK
6
CONTINUOUS
10
152.847
20
-57.2911
11
152.834
21
-57.2728
0
LINE
8
BLACK
6
CONTINUOUS
10
152.834
20
-57.2728
11
152.833
21
-57.2716
0
LINE
8
BLACK
6
CONTINUOUS
10
152.833
20
-57.2716
11
152.785
21
-57.1764
0
LINE
8
BLACK
6
CONTINUOUS
10
152.785
20
-57.1764
11
152.778
21
-57.1514
0
LINE
8
BLACK
6
CONTINUOUS
10
152.778
20
-57.1514
11
152.779
21
-57.1471
0
LINE
8
BLACK
6
CONTINUOUS
10
152.779
20
-57.1471
11
152.777
21
-57.1429
0
LINE
8
BLACK
6
CONTINUOUS
10
152.777
20
-57.1429
11
152.777
21
-56.9048
0
LINE
8
BLACK
6
CONTINUOUS
10
152.777
20
-56.9048
11
152.782
21
-56.8791
0
LINE
8
BLACK
6
CONTINUOUS
10
152.782
20
-56.8791
11
152.785
21
-56.8757
0
LINE
8
BLACK
6
CONTINUOUS
10
152.785
20
-56.8757
11
152.785
21
-56.8712
0
LINE
8
BLACK
6
CONTINUOUS
10
152.785
20
-56.8712
11
152.833
21
-56.776
0
LINE
8
BLACK
6
CONTINUOUS
10
152.833
20
-56.776
11
152.846
21
-56.758
0
LINE
8
BLACK
6
CONTINUOUS
10
152.846
20
-56.758
11
152.847
21
-56.7565
0
LINE
8
BLACK
6
CONTINUOUS
10
152.847
20
-56.7565
11
152.895
21
-56.7089
0
LINE
8
BLACK
6
CONTINUOUS
10
152.895
20
-56.7089
11
152.916
21
-56.6939
0
LINE
8
BLACK
6
CONTINUOUS
10
152.916
20
-56.6939
11
152.967
21
-56.6895
0
LINE
8
BLACK
6
CONTINUOUS
10
152.967
20
-56.6895
11
153.009
21
-56.7189
0
LINE
8
BLACK
6
CONTINUOUS
10
153.009
20
-56.7189
11
153.022
21
-56.7684
0
LINE
8
BLACK
6
CONTINUOUS
10
153.022
20
-56.7684
11
153.001
21
-56.8149
0
LINE
8
BLACK
6
CONTINUOUS
10
153.001
20
-56.8149
11
152.962
21
-56.8539
0
LINE
8
BLACK
6
CONTINUOUS
10
152.962
20
-56.8539
11
152.927
21
-56.9225
0
LINE
8
BLACK
6
CONTINUOUS
10
152.927
20
-56.9225
11
152.927
21
-57.1252
0
LINE
8
BLACK
6
CONTINUOUS
10
152.927
20
-57.1252
11
152.962
21
-57.1937
0
LINE
8
BLACK
6
CONTINUOUS
10
152.962
20
-57.1937
11
152.992
21
-57.2241
0
LINE
8
BLACK
6
CONTINUOUS
10
152.992
20
-57.2241
11
153.061
21
-57.2583
0
LINE
8
BLACK
6
CONTINUOUS
10
153.061
20
-57.2583
11
153.126
21
-57.2583
0
LINE
8
BLACK
6
CONTINUOUS
10
153.126
20
-57.2583
11
153.24
21
-57.2202
0
LINE
8
BLACK
6
CONTINUOUS
10
153.24
20
-57.2202
11
153.799
21
-56.6613
0
LINE
8
BLACK
6
CONTINUOUS
10
153.799
20
-56.6613
11
153.813
21
-56.6519
0
LINE
8
BLACK
6
CONTINUOUS
10
153.813
20
-56.6519
11
153.815
21
-56.6493
0
LINE
8
BLACK
6
CONTINUOUS
10
153.815
20
-56.6493
11
153.817
21
-56.649
0
LINE
8
BLACK
6
CONTINUOUS
10
153.817
20
-56.649
11
153.821
21
-56.6463
0
LINE
8
BLACK
6
CONTINUOUS
10
153.821
20
-56.6463
11
153.843
21
-56.6443
0
LINE
8
BLACK
6
CONTINUOUS
10
153.843
20
-56.6443
11
153.865
21
-56.6404
0
LINE
8
BLACK
6
CONTINUOUS
10
153.865
20
-56.6404
11
153.868
21
-56.6421
0
LINE
8
BLACK
6
CONTINUOUS
10
153.87
20
-55.7366
11
153.894
21
-55.7469
0
LINE
8
BLACK
6
CONTINUOUS
10
153.894
20
-55.7469
11
153.898
21
-55.7532
0
LINE
8
BLACK
6
CONTINUOUS
10
153.898
20
-55.7532
11
153.905
21
-55.7566
0
LINE
8
BLACK
6
CONTINUOUS
10
153.905
20
-55.7566
11
153.913
21
-55.7733
0
LINE
8
BLACK
6
CONTINUOUS
10
153.913
20
-55.7733
11
153.924
21
-55.7881
0
LINE
8
BLACK
6
CONTINUOUS
10
153.924
20
-55.7881
11
153.924
21
-55.7959
0
LINE
8
BLACK
6
CONTINUOUS
10
153.924
20
-55.7959
11
153.927
21
-55.8031
0
LINE
8
BLACK
6
CONTINUOUS
10
153.927
20
-55.8031
11
153.922
21
-55.8209
0
LINE
8
BLACK
6
CONTINUOUS
10
153.922
20
-55.8209
11
153.921
21
-55.8393
0
LINE
8
BLACK
6
CONTINUOUS
10
153.921
20
-55.8393
11
153.916
21
-55.845
0
LINE
8
BLACK
6
CONTINUOUS
10
153.916
20
-55.845
11
153.914
21
-55.8526
0
LINE
8
BLACK
6
CONTINUOUS
10
153.914
20
-55.8526
11
153.899
21
-55.8632
0
LINE
8
BLACK
6
CONTINUOUS
10
153.899
20
-55.8632
11
153.886
21
-55.8766
0
LINE
8
BLACK
6
CONTINUOUS
10
153.886
20
-55.8766
11
153.878
21
-55.8775
0
LINE
8
BLACK
6
CONTINUOUS
10
153.878
20
-55.8775
11
153.872
21
-55.882
0
LINE
8
BLACK
6
CONTINUOUS
10
153.872
20
-55.882
11
153.429
21
-56
0
LINE
8
BLACK
6
CONTINUOUS
10
153.429
20
-56
11
153.872
21
-56.118
0
LINE
8
BLACK
6
CONTINUOUS
10
153.872
20
-56.118
11
153.895
21
-56.129
0
LINE
8
BLACK
6
CONTINUOUS
10
153.895
20
-56.129
11
153.9
21
-56.1354
0
LINE
8
BLACK
6
CONTINUOUS
10
153.9
20
-56.1354
11
153.907
21
-56.139
0
LINE
8
BLACK
6
CONTINUOUS
10
153.907
20
-56.139
11
153.914
21
-56.1559
0
LINE
8
BLACK
6
CONTINUOUS
10
153.914
20
-56.1559
11
153.925
21
-56.171
0
LINE
8
BLACK
6
CONTINUOUS
10
153.925
20
-56.171
11
153.924
21
-56.1788
0
LINE
8
BLACK
6
CONTINUOUS
10
153.924
20
-56.1788
11
153.927
21
-56.186
0
LINE
8
BLACK
6
CONTINUOUS
10
153.927
20
-56.186
11
153.922
21
-56.2037
0
LINE
8
BLACK
6
CONTINUOUS
10
153.922
20
-56.2037
11
153.92
21
-56.2221
0
LINE
8
BLACK
6
CONTINUOUS
10
153.92
20
-56.2221
11
153.915
21
-56.2277
0
LINE
8
BLACK
6
CONTINUOUS
10
153.915
20
-56.2277
11
153.913
21
-56.2352
0
LINE
8
BLACK
6
CONTINUOUS
10
153.913
20
-56.2352
11
153.897
21
-56.2453
0
LINE
8
BLACK
6
CONTINUOUS
10
153.897
20
-56.2453
11
153.884
21
-56.2584
0
LINE
8
BLACK
6
CONTINUOUS
10
153.884
20
-56.2584
11
153.876
21
-56.2591
0
LINE
8
BLACK
6
CONTINUOUS
10
153.876
20
-56.2591
11
153.87
21
-56.2634
0
LINE
8
BLACK
6
CONTINUOUS
10
153.87
20
-56.2634
11
152.87
21
-56.5015
0
LINE
8
BLACK
6
CONTINUOUS
10
152.87
20
-56.5015
11
152.844
21
-56.5031
0
LINE
8
BLACK
6
CONTINUOUS
10
152.844
20
-56.5031
11
152.798
21
-56.4801
0
LINE
8
BLACK
6
CONTINUOUS
10
152.798
20
-56.4801
11
152.778
21
-56.433
0
LINE
8
BLACK
6
CONTINUOUS
10
152.778
20
-56.433
11
152.792
21
-56.3838
0
LINE
8
BLACK
6
CONTINUOUS
10
152.792
20
-56.3838
11
152.835
21
-56.3556
0
LINE
8
BLACK
6
CONTINUOUS
10
152.835
20
-56.3556
11
153.546
21
-56.1864
0
LINE
8
BLACK
6
CONTINUOUS
10
153.546
20
-56.1864
11
153.119
21
-56.0725
0
LINE
8
BLACK
6
CONTINUOUS
10
153.119
20
-56.0725
11
153.095
21
-56.0615
0
LINE
8
BLACK
6
CONTINUOUS
10
153.095
20
-56.0615
11
153.091
21
-56.0559
0
LINE
8
BLACK
6
CONTINUOUS
10
153.091
20
-56.0559
11
153.085
21
-56.053
0
LINE
8
BLACK
6
CONTINUOUS
10
153.085
20
-56.053
11
153.077
21
-56.0354
0
LINE
8
BLACK
6
CONTINUOUS
10
153.077
20
-56.0354
11
153.066
21
-56.0195
0
LINE
8
BLACK
6
CONTINUOUS
10
153.066
20
-56.0195
11
153.066
21
-56.0127
0
LINE
8
BLACK
6
CONTINUOUS
10
153.066
20
-56.0127
11
153.063
21
-56.0064
0
LINE
8
BLACK
6
CONTINUOUS
10
153.063
20
-56.0064
11
153.068
21
-55.9877
0
LINE
8
BLACK
6
CONTINUOUS
10
153.068
20
-55.9877
11
153.07
21
-55.9684
0
LINE
8
BLACK
6
CONTINUOUS
10
153.07
20
-55.9684
11
153.075
21
-55.9635
0
LINE
8
BLACK
6
CONTINUOUS
10
153.075
20
-55.9635
11
153.077
21
-55.9569
0
LINE
8
BLACK
6
CONTINUOUS
10
153.077
20
-55.9569
11
153.093
21
-55.9458
0
LINE
8
BLACK
6
CONTINUOUS
10
153.093
20
-55.9458
11
153.106
21
-55.9321
0
LINE
8
BLACK
6
CONTINUOUS
10
153.106
20
-55.9321
11
153.113
21
-55.9315
0
LINE
8
BLACK
6
CONTINUOUS
10
153.113
20
-55.9315
11
153.119
21
-55.9275
0
LINE
8
BLACK
6
CONTINUOUS
10
153.119
20
-55.9275
11
153.546
21
-55.8136
0
LINE
8
BLACK
6
CONTINUOUS
10
153.546
20
-55.8136
11
152.835
21
-55.6444
0
LINE
8
BLACK
6
CONTINUOUS
10
152.835
20
-55.6444
11
152.811
21
-55.634
0
LINE
8
BLACK
6
CONTINUOUS
10
152.811
20
-55.634
11
152.781
21
-55.5929
0
LINE
8
BLACK
6
CONTINUOUS
10
152.781
20
-55.5929
11
152.784
21
-55.5416
0
LINE
8
BLACK
6
CONTINUOUS
10
152.784
20
-55.5416
11
152.819
21
-55.5044
0
LINE
8
BLACK
6
CONTINUOUS
10
152.819
20
-55.5044
11
152.87
21
-55.4985
0
LINE
8
BLACK
6
CONTINUOUS
10
152.87
20
-55.4985
11
153.87
21
-55.7366
0
LINE
8
BLACK
6
CONTINUOUS
10
153.164
20
-54.5962
11
153.167
21
-54.5991
0
LINE
8
BLACK
6
CONTINUOUS
10
153.167
20
-54.5991
11
153.172
21
-54.5996
0
LINE
8
BLACK
6
CONTINUOUS
10
153.172
20
-54.5996
11
153.267
21
-54.6472
0
LINE
8
BLACK
6
CONTINUOUS
10
153.267
20
-54.6472
11
153.285
21
-54.6606
0
LINE
8
BLACK
6
CONTINUOUS
10
153.285
20
-54.6606
11
153.286
21
-54.6613
0
LINE
8
BLACK
6
CONTINUOUS
10
153.286
20
-54.6613
11
153.334
21
-54.7089
0
LINE
8
BLACK
6
CONTINUOUS
10
153.334
20
-54.7089
11
153.347
21
-54.7272
0
LINE
8
BLACK
6
CONTINUOUS
10
153.347
20
-54.7272
11
153.348
21
-54.7284
0
LINE
8
BLACK
6
CONTINUOUS
10
153.348
20
-54.7284
11
153.396
21
-54.8236
0
LINE
8
BLACK
6
CONTINUOUS
10
153.396
20
-54.8236
11
153.399
21
-54.836
0
LINE
8
BLACK
6
CONTINUOUS
10
153.399
20
-54.836
11
153.401
21
-54.839
0
LINE
8
BLACK
6
CONTINUOUS
10
153.401
20
-54.839
11
153.447
21
-55.0214
0
LINE
8
BLACK
6
CONTINUOUS
10
153.447
20
-55.0214
11
153.485
21
-55.0984
0
LINE
8
BLACK
6
CONTINUOUS
10
153.485
20
-55.0984
11
153.516
21
-55.1288
0
LINE
8
BLACK
6
CONTINUOUS
10
153.516
20
-55.1288
11
153.584
21
-55.1631
0
LINE
8
BLACK
6
CONTINUOUS
10
153.584
20
-55.1631
11
153.644
21
-55.1631
0
LINE
8
BLACK
6
CONTINUOUS
10
153.644
20
-55.1631
11
153.713
21
-55.1288
0
LINE
8
BLACK
6
CONTINUOUS
10
153.713
20
-55.1288
11
153.743
21
-55.0984
0
LINE
8
BLACK
6
CONTINUOUS
10
153.743
20
-55.0984
11
153.777
21
-55.0299
0
LINE
8
BLACK
6
CONTINUOUS
10
153.777
20
-55.0299
11
153.777
21
-54.8217
0
LINE
8
BLACK
6
CONTINUOUS
10
153.777
20
-54.8217
11
153.734
21
-54.6904
0
LINE
8
BLACK
6
CONTINUOUS
10
153.734
20
-54.6904
11
153.73
21
-54.6646
0
LINE
8
BLACK
6
CONTINUOUS
10
153.73
20
-54.6646
11
153.749
21
-54.6169
0
LINE
8
BLACK
6
CONTINUOUS
10
153.749
20
-54.6169
11
153.794
21
-54.5925
0
LINE
8
BLACK
6
CONTINUOUS
10
153.794
20
-54.5925
11
153.844
21
-54.6028
0
LINE
8
BLACK
6
CONTINUOUS
10
153.844
20
-54.6028
11
153.876
21
-54.6429
0
LINE
8
BLACK
6
CONTINUOUS
10
153.876
20
-54.6429
11
153.924
21
-54.7858
0
LINE
8
BLACK
6
CONTINUOUS
10
153.924
20
-54.7858
11
153.927
21
-54.808
0
LINE
8
BLACK
6
CONTINUOUS
10
153.927
20
-54.808
11
153.927
21
-54.8095
0
LINE
8
BLACK
6
CONTINUOUS
10
153.927
20
-54.8095
11
153.927
21
-55.0476
0
LINE
8
BLACK
6
CONTINUOUS
10
153.927
20
-55.0476
11
153.923
21
-55.0733
0
LINE
8
BLACK
6
CONTINUOUS
10
153.923
20
-55.0733
11
153.92
21
-55.0767
0
LINE
8
BLACK
6
CONTINUOUS
10
153.92
20
-55.0767
11
153.919
21
-55.0812
0
LINE
8
BLACK
6
CONTINUOUS
10
153.919
20
-55.0812
11
153.872
21
-55.1764
0
LINE
8
BLACK
6
CONTINUOUS
10
153.872
20
-55.1764
11
153.858
21
-55.1944
0
LINE
8
BLACK
6
CONTINUOUS
10
153.858
20
-55.1944
11
153.858
21
-55.1959
0
LINE
8
BLACK
6
CONTINUOUS
10
153.858
20
-55.1959
11
153.81
21
-55.2435
0
LINE
8
BLACK
6
CONTINUOUS
10
153.81
20
-55.2435
11
153.792
21
-55.2564
0
LINE
8
BLACK
6
CONTINUOUS
10
153.792
20
-55.2564
11
153.791
21
-55.2576
0
LINE
8
BLACK
6
CONTINUOUS
10
153.791
20
-55.2576
11
153.695
21
-55.3052
0
LINE
8
BLACK
6
CONTINUOUS
10
153.695
20
-55.3052
11
153.67
21
-55.3126
0
LINE
8
BLACK
6
CONTINUOUS
10
153.67
20
-55.3126
11
153.666
21
-55.3116
0
LINE
8
BLACK
6
CONTINUOUS
10
153.666
20
-55.3116
11
153.662
21
-55.3131
0
LINE
8
BLACK
6
CONTINUOUS
10
153.662
20
-55.3131
11
153.567
21
-55.3131
0
LINE
8
BLACK
6
CONTINUOUS
10
153.567
20
-55.3131
11
153.541
21
-55.3086
0
LINE
8
BLACK
6
CONTINUOUS
10
153.541
20
-55.3086
11
153.538
21
-55.3057
0
LINE
8
BLACK
6
CONTINUOUS
10
153.538
20
-55.3057
11
153.533
21
-55.3052
0
LINE
8
BLACK
6
CONTINUOUS
10
153.533
20
-55.3052
11
153.438
21
-55.2576
0
LINE
8
BLACK
6
CONTINUOUS
10
153.438
20
-55.2576
11
153.42
21
-55.2442
0
LINE
8
BLACK
6
CONTINUOUS
10
153.42
20
-55.2442
11
153.418
21
-55.2435
0
LINE
8
BLACK
6
CONTINUOUS
10
153.418
20
-55.2435
11
153.371
21
-55.1959
0
LINE
8
BLACK
6
CONTINUOUS
10
153.371
20
-55.1959
11
153.358
21
-55.1775
0
LINE
8
BLACK
6
CONTINUOUS
10
153.358
20
-55.1775
11
153.357
21
-55.1764
0
LINE
8
BLACK
6
CONTINUOUS
10
153.357
20
-55.1764
11
153.309
21
-55.0812
0
LINE
8
BLACK
6
CONTINUOUS
10
153.309
20
-55.0812
11
153.305
21
-55.0688
0
LINE
8
BLACK
6
CONTINUOUS
10
153.305
20
-55.0688
11
153.303
21
-55.0658
0
LINE
8
BLACK
6
CONTINUOUS
10
153.303
20
-55.0658
11
153.258
21
-54.8833
0
LINE
8
BLACK
6
CONTINUOUS
10
153.258
20
-54.8833
11
153.219
21
-54.8063
0
LINE
8
BLACK
6
CONTINUOUS
10
153.219
20
-54.8063
11
153.189
21
-54.7759
0
LINE
8
BLACK
6
CONTINUOUS
10
153.189
20
-54.7759
11
153.12
21
-54.7417
0
LINE
8
BLACK
6
CONTINUOUS
10
153.12
20
-54.7417
11
153.061
21
-54.7417
0
LINE
8
BLACK
6
CONTINUOUS
10
153.061
20
-54.7417
11
152.992
21
-54.7759
0
LINE
8
BLACK
6
CONTINUOUS
10
152.992
20
-54.7759
11
152.962
21
-54.8063
0
LINE
8
BLACK
6
CONTINUOUS
10
152.962
20
-54.8063
11
152.927
21
-54.8748
0
LINE
8
BLACK
6
CONTINUOUS
10
152.927
20
-54.8748
11
152.927
21
-55.0831
0
LINE
8
BLACK
6
CONTINUOUS
10
152.927
20
-55.0831
11
152.971
21
-55.2144
0
LINE
8
BLACK
6
CONTINUOUS
10
152.971
20
-55.2144
11
152.975
21
-55.2401
0
LINE
8
BLACK
6
CONTINUOUS
10
152.975
20
-55.2401
11
152.956
21
-55.2879
0
LINE
8
BLACK
6
CONTINUOUS
10
152.956
20
-55.2879
11
152.911
21
-55.3123
0
LINE
8
BLACK
6
CONTINUOUS
10
152.911
20
-55.3123
11
152.861
21
-55.302
0
LINE
8
BLACK
6
CONTINUOUS
10
152.861
20
-55.302
11
152.829
21
-55.2618
0
LINE
8
BLACK
6
CONTINUOUS
10
152.829
20
-55.2618
11
152.781
21
-55.119
0
LINE
8
BLACK
6
CONTINUOUS
10
152.781
20
-55.119
11
152.778
21
-55.0968
0
LINE
8
BLACK
6
CONTINUOUS
10
152.778
20
-55.0968
11
152.777
21
-55.0952
0
LINE
8
BLACK
6
CONTINUOUS
10
152.777
20
-55.0952
11
152.777
21
-54.8571
0
LINE
8
BLACK
6
CONTINUOUS
10
152.777
20
-54.8571
11
152.782
21
-54.8315
0
LINE
8
BLACK
6
CONTINUOUS
10
152.782
20
-54.8315
11
152.785
21
-54.8281
0
LINE
8
BLACK
6
CONTINUOUS
10
152.785
20
-54.8281
11
152.785
21
-54.8236
0
LINE
8
BLACK
6
CONTINUOUS
10
152.785
20
-54.8236
11
152.833
21
-54.7284
0
LINE
8
BLACK
6
CONTINUOUS
10
152.833
20
-54.7284
11
152.846
21
-54.7104
0
LINE
8
BLACK
6
CONTINUOUS
10
152.846
20
-54.7104
11
152.847
21
-54.7089
0
LINE
8
BLACK
6
CONTINUOUS
10
152.847
20
-54.7089
11
152.895
21
-54.6613
0
LINE
8
BLACK
6
CONTINUOUS
10
152.895
20
-54.6613
11
152.913
21
-54.6484
0
LINE
8
BLACK
6
CONTINUOUS
10
152.913
20
-54.6484
11
152.914
21
-54.6472
0
LINE
8
BLACK
6
CONTINUOUS
10
152.914
20
-54.6472
11
153.009
21
-54.5996
0
LINE
8
BLACK
6
CONTINUOUS
10
153.009
20
-54.5996
11
153.034
21
-54.5922
0
LINE
8
BLACK
6
CONTINUOUS
10
153.034
20
-54.5922
11
153.039
21
-54.5932
0
LINE
8
BLACK
6
CONTINUOUS
10
153.039
20
-54.5932
11
153.043
21
-54.5917
0
LINE
8
BLACK
6
CONTINUOUS
10
153.043
20
-54.5917
11
153.138
21
-54.5917
0
LINE
8
BLACK
6
CONTINUOUS
10
153.138
20
-54.5917
11
153.164
21
-54.5962
0
LINE
8
BLACK
6
CONTINUOUS
10
106.965
20
-145.035
11
106.95
21
-145
0
LINE
8
BLACK
6
CONTINUOUS
10
106.95
20
-145
11
106.95
21
-45
0
LINE
8
BLACK
6
CONTINUOUS
10
106.95
20
-45
11
106.965
21
-44.9646
0
LINE
8
BLACK
6
CONTINUOUS
10
106.965
20
-44.9646
11
107
21
-44.95
0
LINE
8
BLACK
6
CONTINUOUS
10
107
20
-44.95
11
167
21
-44.95
0
LINE
8
BLACK
6
CONTINUOUS
10
167
20
-44.95
11
167.035
21
-44.9646
0
LINE
8
BLACK
6
CONTINUOUS
10
167.035
20
-44.9646
11
167.05
21
-45
0
LINE
8
BLACK
6
CONTINUOUS
10
167.05
20
-45
11
167.05
21
-145
0
LINE
8
BLACK
6
CONTINUOUS
10
167.05
20
-145
11
167.035
21
-145.035
0
LINE
8
BLACK
6
CONTINUOUS
10
167.035
20
-145.035
11
167
21
-145.05
0
LINE
8
BLACK
6
CONTINUOUS
10
167
20
-145.05
11
107
21
-145.05
0
LINE
8
BLACK
6
CONTINUOUS
10
107
20
-145.05
11
106.965
21
-145.035
0
LINE
8
BLACK
6
CONTINUOUS
10
107.05
20
-45.05
11
107.05
21
-144.95
0
LINE
8
BLACK
6
CONTINUOUS
10
107.05
20
-144.95
11
166.95
21
-144.95
0
LINE
8
BLACK
6
CONTINUOUS
10
166.95
20
-144.95
11
166.95
21
-45.05
0
LINE
8
BLACK
6
CONTINUOUS
10
166.95
20
-45.05
11
107.05
21
-45.05
  0
ENDSEC
  0
EOF
